<svg width="1440" height="1024" viewBox="0 0 1440 1024" fill="none" xmlns="http://www.w3.org/2000/svg">
<rect width="1440" height="1024" fill="url(#paint0_linear_25_882)"/>
<g clip-path="url(#clip0_25_882)">
<path d="M1314.91 938.56C1314.03 938.38 1313.35 938.241 1312.68 938.106C1312.41 938.052 1312.14 938.02 1312.11 937.662C1312.07 937.304 1312.35 937.218 1312.58 937.102C1313.15 936.819 1313.72 936.545 1314.26 936.157C1313.58 936.256 1312.91 936.367 1312.23 936.446C1311.99 936.474 1311.64 936.562 1311.6 936.168C1311.57 935.833 1311.91 935.831 1312.12 935.799C1313.2 935.636 1314.29 935.505 1315.37 935.353C1315.64 935.315 1315.84 935.351 1315.94 935.647C1316.05 935.986 1315.96 936.213 1315.64 936.371C1314.89 936.749 1314.13 937.132 1313.2 937.604C1314.19 937.799 1314.99 937.968 1315.79 938.11C1316.13 938.172 1316.43 938.273 1316.44 938.676C1316.45 939.158 1316.04 939.115 1315.75 939.158C1314.75 939.312 1313.74 939.432 1312.74 939.57C1312.47 939.606 1312.17 939.698 1312.12 939.297C1312.07 938.933 1312.37 938.95 1312.6 938.914C1313.3 938.8 1314 938.699 1314.91 938.56Z" fill="#A3B0A0"/>
<path d="M1354.88 988.05C1355.17 988.763 1355.4 989.325 1355.63 989.887C1355.72 990.116 1355.79 990.341 1355.56 990.545C1355.34 990.742 1355.12 990.678 1354.9 990.564C1354.28 990.257 1353.66 989.953 1353.05 989.646C1352.99 989.709 1352.93 989.769 1352.87 989.831C1353.36 990.268 1353.85 990.697 1354.32 991.145C1354.48 991.299 1354.74 991.49 1354.48 991.743C1354.19 992.019 1353.99 991.739 1353.82 991.556C1353.12 990.853 1352.43 990.146 1351.75 989.43C1351.58 989.252 1351.27 989.081 1351.53 988.768C1351.77 988.474 1352.05 988.341 1352.44 988.547C1353.16 988.926 1353.9 989.278 1354.76 989.704C1354.64 988.836 1354.24 988.232 1353.99 987.574C1353.86 987.222 1353.76 986.909 1354.15 986.663C1354.55 986.41 1354.73 986.761 1354.94 986.974C1355.62 987.662 1356.28 988.358 1356.93 989.061C1357.09 989.224 1357.35 989.398 1357.09 989.661C1356.81 989.944 1356.61 989.698 1356.42 989.516C1355.95 989.074 1355.49 988.633 1354.88 988.05Z" fill="#A3B0A0"/>
<path d="M1362.97 983.662C1362.59 983.6 1362.06 983.516 1361.54 983.432C1361.37 983.407 1361.2 983.389 1361.11 983.563C1361.02 983.747 1361.18 983.855 1361.29 983.962C1361.48 984.146 1361.69 984.32 1361.88 984.506C1362.02 984.641 1362.14 984.793 1361.97 984.989C1361.8 985.177 1361.61 985.233 1361.41 985.055C1360.55 984.264 1359.68 983.469 1358.82 982.669C1358.72 982.577 1358.68 982.457 1358.73 982.307C1358.85 981.917 1360.1 981.072 1360.54 981.117C1361.26 981.192 1361.63 981.623 1361.65 982.343C1361.65 982.71 1361.91 982.764 1362.18 982.811C1362.52 982.871 1362.87 982.899 1363.2 982.997C1363.4 983.057 1363.78 982.969 1363.74 983.314C1363.71 983.608 1363.41 983.707 1362.97 983.662Z" fill="#A3B0A0"/>
<path d="M1326.7 972.123C1326.31 972.215 1325.94 972.295 1325.87 971.922C1325.78 971.48 1326.22 971.564 1326.48 971.523C1327.59 971.345 1328.7 971.189 1329.81 971.019C1330.08 970.979 1330.34 970.946 1330.52 971.234C1330.71 971.542 1330.5 971.737 1330.33 971.939C1329.65 972.76 1328.96 973.581 1328.26 974.387C1328.11 974.56 1327.97 974.925 1327.64 974.633C1327.38 974.408 1327.46 974.149 1327.67 973.93C1327.97 973.622 1328.19 973.334 1327.84 972.899C1327.51 972.496 1327.33 971.898 1326.7 972.123Z" fill="#A3B0A0"/>
<path d="M1364.47 977.013C1365.58 977.345 1366.81 977.709 1368.03 978.074C1368.22 978.129 1368.43 978.198 1368.32 978.447C1368.2 978.727 1367.98 978.807 1367.66 978.721C1367.27 978.614 1366.87 978.372 1366.5 978.824C1366.11 979.295 1365.57 979.692 1366.16 980.376C1366.32 980.56 1366.29 980.794 1366.08 980.935C1365.81 981.113 1365.69 980.873 1365.58 980.699C1364.98 979.724 1364.39 978.745 1363.79 977.765C1363.67 977.572 1363.62 977.381 1363.78 977.175C1363.94 976.98 1364.13 976.946 1364.47 977.013Z" fill="#A3B0A0"/>
<path d="M1361.06 985.917C1360.88 986.315 1360.62 986.438 1360.27 986.249C1359.71 985.944 1359.3 986.131 1358.85 986.54C1358.46 986.898 1358.27 987.196 1358.59 987.685C1358.75 987.927 1358.8 988.223 1358.47 988.356C1358.14 988.482 1358.08 988.15 1357.98 987.955C1357.51 986.999 1357.06 986.037 1356.6 985.072C1356.5 984.853 1356.4 984.631 1356.63 984.414C1356.79 984.249 1356.98 984.185 1357.21 984.273C1358.4 984.74 1359.59 985.205 1360.77 985.681C1360.88 985.726 1360.96 985.839 1361.06 985.917Z" fill="#A3B0A0"/>
<path d="M1368.79 975.06C1368.72 975.178 1368.63 975.308 1368.54 975.441C1368.37 975.703 1367.95 975.928 1368.49 976.258C1368.89 976.507 1369.21 976.807 1369.62 976.243C1369.85 975.939 1370.11 975.24 1370.51 975.561C1371.01 975.969 1370.22 976.256 1370.06 976.627C1369.96 976.839 1369.76 977.004 1369.62 977.197C1369.4 977.508 1369.15 977.591 1368.81 977.358C1367.92 976.76 1367.03 976.172 1366.13 975.593C1365.79 975.371 1365.73 975.141 1366.01 974.818C1366.3 974.475 1366.57 974.106 1366.86 973.756C1367 973.594 1367.15 973.396 1367.39 973.598C1367.63 973.806 1367.42 973.979 1367.31 974.149C1367.22 974.284 1367.12 974.404 1367.02 974.53C1366.81 974.787 1366.58 975.01 1367.03 975.296C1367.38 975.525 1367.66 975.679 1367.95 975.223C1368.06 975.045 1368.21 974.863 1368.38 974.762C1368.62 974.627 1368.79 974.742 1368.79 975.06Z" fill="#A3B0A0"/>
<path d="M1331.98 973.802C1332.28 973.823 1333.59 975.163 1333.56 975.377C1333.55 975.465 1333.47 975.568 1333.4 975.621C1333.27 975.711 1333.14 975.643 1333.04 975.548C1332.85 975.364 1332.65 975.182 1332.48 974.976C1332.19 974.618 1331.92 974.702 1331.6 974.95C1331.21 975.251 1331.4 975.465 1331.63 975.737C1331.79 975.936 1332.21 976.149 1331.87 976.442C1331.54 976.725 1331.33 976.316 1331.19 976.114C1330.73 975.484 1330.38 975.887 1330.02 976.185C1329.53 976.575 1330.05 976.749 1330.19 977.01C1330.36 977.304 1331 977.527 1330.63 977.872C1330.21 978.26 1329.97 977.626 1329.73 977.379C1328.57 976.181 1328.51 976.434 1329.85 975.371C1330.41 974.925 1330.98 974.483 1331.56 974.048C1331.7 973.941 1331.87 973.864 1331.98 973.802Z" fill="#A3B0A0"/>
<path d="M1313.35 943.878C1313.35 943.822 1313.32 943.501 1313.69 943.477C1314.16 943.447 1313.97 943.829 1313.98 944.056C1314.01 944.472 1314.06 944.898 1314.54 945.005C1315.06 945.121 1315.23 944.714 1315.37 944.32C1315.43 944.144 1315.5 943.97 1315.56 943.797C1315.8 943.156 1316.21 942.742 1316.94 942.838C1317.59 942.924 1318.06 943.541 1318.09 944.287C1318.1 944.545 1318.08 944.793 1317.77 944.851C1317.38 944.926 1317.43 944.613 1317.42 944.386C1317.4 943.994 1317.37 943.593 1316.88 943.554C1316.42 943.518 1316.36 943.934 1316.23 944.249C1316.18 944.371 1316.15 944.502 1316.1 944.624C1315.76 945.479 1315.25 945.854 1314.58 945.749C1313.85 945.636 1313.37 944.984 1313.35 943.878Z" fill="#A3B0A0"/>
<path d="M1315.6 923.995C1315.6 924.567 1314.91 925.42 1314.37 925.544C1314.16 925.592 1313.99 925.54 1313.89 925.358C1313.79 925.165 1313.95 925.075 1314.09 924.991C1314.22 924.908 1314.37 924.839 1314.5 924.743C1314.75 924.541 1315.02 924.325 1314.87 923.945C1314.71 923.564 1314.36 923.587 1314.04 923.643C1313.62 923.716 1313.22 923.875 1312.8 923.93C1312.06 924.027 1311.52 923.635 1311.45 923.002C1311.39 922.447 1312.04 921.579 1312.57 921.5C1312.75 921.472 1312.89 921.536 1312.98 921.682C1313.08 921.87 1312.94 921.969 1312.8 922.059C1312.68 922.13 1312.56 922.194 1312.46 922.278C1312.26 922.449 1312.01 922.623 1312.16 922.94C1312.3 923.234 1312.59 923.24 1312.86 923.184C1313.33 923.088 1313.79 922.919 1314.26 922.869C1315.05 922.781 1315.61 923.279 1315.6 923.995Z" fill="#A3B0A0"/>
<path d="M1362.33 979.424C1362.42 979.484 1362.56 979.55 1362.68 979.651C1363.47 980.329 1364.26 981.008 1365.04 981.694C1365.22 981.848 1365.46 982.007 1365.24 982.286C1365.02 982.579 1364.78 982.453 1364.56 982.26C1363.74 981.544 1362.91 980.828 1362.08 980.108C1361.96 980.003 1361.82 979.891 1361.9 979.705C1361.97 979.553 1362.09 979.456 1362.33 979.424Z" fill="#A3B0A0"/>
<path d="M1313.73 942.095C1313.38 942.073 1313 942.228 1312.98 941.769C1312.96 941.407 1313.31 941.409 1313.56 941.366C1314.54 941.205 1315.51 941.044 1316.49 940.909C1316.78 940.869 1317.21 940.712 1317.27 941.177C1317.33 941.651 1316.86 941.565 1316.57 941.617C1315.6 941.788 1314.63 941.945 1313.73 942.095Z" fill="#A3B0A0"/>
<path d="M1394 925.506C1393.86 926.993 1393.72 928.479 1393.58 929.967C1392.84 937.805 1391.06 945.408 1388.3 952.782C1383.9 964.584 1377.32 975.047 1368.85 984.337C1363.8 989.869 1358.29 994.887 1352.04 999.039C1349.06 1001.02 1349.65 1001.07 1346.61 998.964C1339.61 994.131 1333.56 988.253 1328.14 981.713C1320.33 972.28 1314.42 961.787 1310.61 950.133C1308.66 944.174 1307.33 938.075 1306.63 931.838C1306.22 928.168 1305.97 924.494 1306 920.799C1306.01 920.284 1306.11 919.886 1306.56 919.562C1314.28 914.021 1322.52 909.505 1331.65 906.707C1336.13 905.333 1340.71 904.416 1345.4 904.101C1345.55 904.09 1345.71 904.032 1345.86 903.998C1348.59 903.998 1351.32 903.998 1354.04 903.998C1355.84 904.216 1357.65 904.379 1359.44 904.662C1367.89 906.004 1375.76 908.99 1383.24 913.086C1386.97 915.127 1390.51 917.47 1394 919.888C1394 921.761 1394 923.635 1394 925.506ZM1348.94 905.353C1345.34 905.41 1340.7 905.899 1336.13 906.99C1325.78 909.466 1316.54 914.274 1307.9 920.376C1307.46 920.692 1307.39 921.064 1307.4 921.542C1307.55 926.031 1307.82 930.507 1308.5 934.952C1309.87 943.947 1312.49 952.551 1316.41 960.76C1320.53 969.392 1325.85 977.216 1332.27 984.288C1337.09 989.588 1342.35 994.39 1348.31 998.403C1349.1 998.932 1349.66 998.919 1350.44 998.403C1356.56 994.381 1361.99 989.573 1366.97 984.24C1374.88 975.78 1381.17 966.258 1385.66 955.564C1390.24 944.632 1392.44 933.21 1392.66 921.382C1392.67 920.839 1392.42 920.567 1392.02 920.289C1387.31 916.975 1382.38 914.038 1377.14 911.629C1368.53 907.674 1359.53 905.406 1348.94 905.353Z" fill="#A3B0A0"/>
<path d="M1318.05 928.828C1317.5 927.197 1318.56 926.151 1320.07 925.122C1325.91 921.122 1332.09 917.843 1338.98 916.051C1347.47 913.847 1355.86 914.242 1364.16 917.037C1370.37 919.133 1375.99 922.338 1381.28 926.179C1381.75 926.522 1381.87 926.931 1381.87 927.48C1381.82 941.325 1377.99 954.049 1370.47 965.658C1365.68 973.068 1359.79 979.475 1352.7 984.757C1351.97 985.299 1351.18 985.764 1350.45 986.298C1349.77 986.791 1349.16 986.731 1348.46 986.275C1345.68 984.444 1343.14 982.313 1340.76 980.007C1330.37 969.969 1323.28 958.017 1319.92 943.912C1318.79 939.171 1318.09 933.542 1318.05 928.828ZM1366.28 956.943C1366.29 959.601 1365.73 961.699 1364.73 963.472C1361.44 969.296 1354.22 971.907 1347.76 970.723C1342.46 969.752 1338.57 966.869 1336.31 961.914C1336.13 961.532 1336.02 961.285 1335.62 961.759C1334.33 963.294 1333.02 964.812 1331.7 966.314C1331.36 966.696 1331.41 966.977 1331.68 967.362C1332.85 969.028 1334.04 970.668 1335.33 972.239C1339.27 977.034 1343.63 981.375 1348.75 984.928C1349.31 985.316 1349.7 985.284 1350.24 984.916C1357.59 979.876 1363.58 973.504 1368.59 966.175C1368.75 965.95 1368.88 965.723 1368.83 965.433C1368.53 963.725 1368.35 961.978 1367.45 960.439C1367.24 960.07 1367.2 959.766 1367.42 959.401C1367.64 959.035 1367.83 958.649 1368.03 958.274C1369.75 955.099 1371.12 951.807 1371.31 948.137C1371.34 947.535 1371.57 946.654 1371.05 946.429C1370.46 946.176 1370.1 947.023 1369.7 947.46C1369.63 947.539 1369.57 947.627 1369.5 947.715C1368.62 948.928 1367.89 950.238 1367.12 951.52C1367.03 951.668 1366.97 951.903 1366.73 951.845C1366.55 951.8 1366.55 951.599 1366.51 951.449C1366.35 950.799 1366.22 950.146 1366.04 949.498C1365.8 948.589 1365.51 947.706 1364.86 946.984C1364.5 946.59 1364.24 946.482 1364.04 947.113C1363.89 947.597 1363.73 948.086 1363.51 948.54C1363.18 949.224 1363.31 949.747 1363.78 950.354C1365.41 952.467 1366.23 954.891 1366.28 956.943ZM1348.07 969.632C1347.75 969.264 1347.57 969.069 1347.4 968.874C1347.22 968.674 1347.03 968.481 1346.86 968.276C1342.04 962.473 1340.13 955.684 1340.14 948.266C1340.16 942.744 1341.43 937.467 1343.4 932.337C1343.67 931.621 1344.05 931.332 1344.83 931.394C1347.31 931.591 1349.79 931.608 1352.28 931.585C1353.05 931.578 1353.82 931.531 1354.6 931.478C1354.89 931.456 1355.17 931.375 1355.29 931.028C1355.78 929.534 1356.41 928.076 1356.46 926.466C1356.49 925.392 1356.37 925.296 1355.33 925.467C1350.08 926.331 1344.8 926.846 1339.49 927.137C1335.94 927.332 1332.38 927.356 1328.83 927.261C1328.16 927.244 1327.72 927.489 1327.35 928.007C1326.5 929.158 1326.09 930.475 1325.79 931.842C1325.58 932.813 1325.63 932.858 1326.58 932.873C1330.02 932.922 1333.41 932.614 1336.75 931.771C1337.91 931.478 1338.15 931.778 1337.82 932.955C1336.29 938.376 1335.3 943.878 1335.25 949.533C1335.23 952.945 1335.49 956.315 1336.59 959.573C1338.44 965.043 1342.1 968.466 1348.07 969.632ZM1377.88 946.199C1379.7 940.183 1380.48 934.029 1380.63 927.782C1380.64 927.33 1380.37 927.12 1380.06 926.897C1377.25 924.878 1374.35 923.026 1371.26 921.47C1369.49 920.574 1370.01 920.462 1368.69 921.961C1363.24 928.14 1358.03 934.517 1352.82 940.892C1351.94 941.96 1351.08 943.033 1350.12 944.23C1352.95 944.221 1355.53 944.688 1357.99 945.745C1358.42 945.929 1358.47 945.58 1358.52 945.278C1358.68 944.302 1358.82 943.325 1358.85 942.333C1358.9 939.923 1358.79 937.525 1358.54 935.128C1358.44 934.146 1358.6 934.065 1359.48 934.481C1362.35 935.838 1364.59 937.949 1366.52 940.429C1367.24 941.353 1367.2 941.325 1367.99 940.442C1369.71 938.53 1371.45 936.641 1373.68 935.289C1374.29 934.916 1374.67 935.006 1375.06 935.593C1375.86 936.8 1376.57 938.052 1377.05 939.422C1377.83 941.619 1378.12 943.878 1377.88 946.199ZM1354.62 957.931C1354.62 957.937 1354.62 957.944 1354.62 957.95C1353.65 957.95 1352.69 957.965 1351.73 957.944C1351.21 957.933 1351.03 958.147 1351.04 958.66C1351.06 960.049 1351.06 961.438 1351.04 962.827C1351.04 963.339 1351.22 963.54 1351.74 963.54C1353.51 963.54 1355.25 963.35 1356.99 963.017C1357.37 962.945 1357.6 962.752 1357.7 962.362C1357.98 961.138 1358.19 959.907 1358.21 958.643C1358.21 958.128 1358.01 957.916 1357.5 957.924C1356.54 957.942 1355.58 957.931 1354.62 957.931ZM1354.59 956.951C1354.59 956.945 1354.59 956.941 1354.59 956.934C1355.52 956.934 1356.46 956.906 1357.39 956.945C1358.04 956.971 1358.23 956.707 1358.19 956.09C1358.14 955.097 1357.97 954.13 1357.76 953.162C1357.68 952.774 1357.47 952.581 1357.07 952.504C1355.31 952.165 1353.53 951.989 1351.74 951.976C1351.23 951.972 1351.01 952.163 1351.02 952.681C1351.04 953.884 1351.05 955.086 1351.03 956.291C1351.02 956.776 1351.23 956.964 1351.7 956.958C1352.66 956.941 1353.62 956.951 1354.59 956.951ZM1346.82 957.959C1346.82 957.963 1346.82 957.965 1346.82 957.969C1345.96 957.969 1345.11 957.972 1344.25 957.969C1343.93 957.969 1343.64 958.034 1343.67 958.441C1343.77 959.819 1343.77 961.219 1344.4 962.503C1344.53 962.78 1344.69 962.981 1345.03 963.041C1346.48 963.296 1347.93 963.5 1349.4 963.521C1349.84 963.528 1350.03 963.333 1350.03 962.897C1350.02 961.455 1350.01 960.012 1350.01 958.572C1350.01 958.13 1349.82 957.948 1349.38 957.957C1348.53 957.967 1347.67 957.959 1346.82 957.959ZM1346.72 956.998C1346.72 956.986 1346.72 956.973 1346.72 956.962C1347.58 956.962 1348.43 956.949 1349.28 956.966C1349.78 956.977 1350.02 956.797 1350.01 956.27C1349.99 955.071 1349.99 953.871 1350 952.671C1350 952.203 1349.83 951.989 1349.34 951.998C1347.82 952.023 1346.32 952.227 1344.83 952.512C1344.44 952.587 1344.23 952.795 1344.14 953.181C1343.89 954.248 1343.77 955.333 1343.66 956.418C1343.62 956.857 1343.77 957.035 1344.25 957.009C1345.07 956.968 1345.9 956.998 1346.72 956.998ZM1354.78 969.508C1359.13 968.876 1364.67 963.958 1364.62 960.814C1362.9 962.199 1360.93 962.994 1358.85 963.551C1358.58 963.626 1358.37 963.736 1358.27 964.023C1357.54 966.085 1356.52 967.965 1354.78 969.508ZM1351 948.109C1351.01 948.109 1351.02 948.109 1351.02 948.109C1351.02 948.857 1351.03 949.605 1351.02 950.354C1351.01 950.78 1351.17 950.997 1351.62 950.994C1352.99 950.988 1354.34 951.181 1355.69 951.316C1356.54 951.402 1357.04 950.739 1356.68 949.961C1356.12 948.737 1355.39 947.623 1354.4 946.699C1353.7 946.052 1352.91 945.554 1351.98 945.338C1351.2 945.158 1351.01 945.321 1351 946.107C1350.99 946.772 1351 947.441 1351 948.109ZM1357.24 963.946C1355.25 964.28 1353.46 964.466 1351.65 964.527C1351.12 964.544 1351.05 964.827 1351.06 965.255C1351.1 966.454 1351.13 967.652 1351.15 968.85C1351.17 970.014 1351.38 970.194 1352.48 969.744C1355.04 968.693 1356.22 966.496 1357.24 963.946ZM1362.29 957.828C1362.29 957.858 1362.29 957.89 1362.29 957.92C1361.49 957.92 1360.69 957.922 1359.89 957.918C1359.49 957.916 1359.22 958.032 1359.23 958.503C1359.25 959.682 1359.05 960.838 1358.81 961.984C1358.71 962.449 1358.85 962.574 1359.31 962.441C1360.9 961.971 1362.42 961.331 1363.73 960.278C1364.36 959.772 1364.88 959.178 1365.09 958.36C1365.19 957.984 1365.1 957.811 1364.68 957.822C1363.89 957.841 1363.09 957.828 1362.29 957.828ZM1344.69 951.502C1346.18 951.34 1347.58 951.11 1348.98 951.059C1349.87 951.027 1350.04 950.669 1350 949.891C1349.95 948.664 1349.99 947.434 1349.97 946.206C1349.97 945.955 1350.12 945.604 1349.84 945.471C1349.53 945.325 1349.23 945.556 1348.96 945.721C1348.82 945.801 1348.72 945.934 1348.62 946.058C1347.48 947.443 1346.35 948.827 1345.22 950.219C1344.94 950.57 1344.74 950.971 1344.69 951.502ZM1362.09 956.928C1362.09 956.926 1362.09 956.923 1362.09 956.921C1362.9 956.921 1363.7 956.915 1364.5 956.923C1364.96 956.93 1365.01 956.735 1364.78 956.392C1364.66 956.216 1364.54 956.036 1364.39 955.88C1363 954.36 1361.16 953.663 1359.27 953.048C1358.9 952.926 1358.8 953.095 1358.86 953.464C1359.02 954.437 1359.23 955.406 1359.23 956.4C1359.22 956.84 1359.48 956.934 1359.85 956.93C1360.6 956.921 1361.35 956.928 1362.09 956.928ZM1350.09 969.842C1350.09 968.226 1350.1 966.762 1350.09 965.3C1350.09 964.807 1349.9 964.542 1349.34 964.49C1348.15 964.379 1346.95 964.361 1345.77 964.106C1345.42 964.031 1345.31 964.175 1345.5 964.492C1346.74 966.471 1348.16 968.282 1350.09 969.842ZM1354.84 945.747C1355.94 946.808 1356.68 947.867 1357.39 949.076C1357.77 948.418 1357.91 947.824 1358.08 947.245C1358.14 947.042 1358.1 946.868 1357.9 946.774C1356.99 946.347 1356.08 945.936 1354.84 945.747ZM1343.07 953.061C1341.71 954.105 1341.51 955.74 1342.56 956.966C1342.73 955.672 1342.89 954.428 1343.07 953.061ZM1363.14 951.288C1363.27 952.666 1363.22 954.137 1364.89 954.823C1364.56 953.492 1363.98 952.332 1363.14 951.288Z" fill="#A3B0A0"/>
<path d="M1345.15 908.703C1345.24 908.362 1344.97 907.965 1345.41 907.745C1345.85 907.522 1347.26 907.637 1347.56 907.944C1347.92 908.302 1348.1 908.816 1347.8 909.181C1347.17 909.944 1347.61 910.392 1348.09 910.928C1348.29 911.144 1348.83 911.371 1348.49 911.714C1348.13 912.079 1347.77 911.697 1347.5 911.378C1347.25 911.071 1346.99 910.765 1346.72 910.467C1346.62 910.343 1346.47 910.265 1346.3 910.332C1346.1 910.411 1346.15 910.587 1346.16 910.743C1346.18 911.009 1346.2 911.275 1346.21 911.541C1346.22 911.772 1346.15 911.97 1345.88 912.002C1345.6 912.034 1345.5 911.847 1345.47 911.616C1345.36 910.636 1345.26 909.655 1345.15 908.703Z" fill="#A3B0A0"/>
<path d="M1385.81 945.05C1384.69 944.703 1383.57 944.354 1382.46 944.007C1382.3 943.957 1382.17 943.876 1382.12 943.698C1382.05 943.348 1382.7 942.069 1383.07 941.925C1383.64 941.698 1384.25 941.758 1384.56 942.29C1384.92 942.877 1385.3 942.858 1385.82 942.652C1386.01 942.575 1386.22 942.506 1386.43 942.489C1386.66 942.472 1386.99 942.15 1387.11 942.54C1387.22 942.907 1386.91 943.108 1386.57 943.194C1386.13 943.303 1385.69 943.419 1385.26 943.524C1385.06 943.571 1384.87 943.644 1384.89 943.869C1384.9 944.064 1385.11 944.062 1385.26 944.109C1385.51 944.191 1385.76 944.281 1386.02 944.36C1386.24 944.433 1386.41 944.545 1386.32 944.819C1386.24 945.087 1386.04 945.102 1385.81 945.05Z" fill="#A3B0A0"/>
<path d="M1321.16 917.77C1320.97 918.222 1321.28 918.355 1321.65 918.469C1321.95 918.563 1322.25 918.664 1322.55 918.79C1322.72 918.867 1323.05 918.87 1322.99 919.15C1322.91 919.446 1322.61 919.53 1322.33 919.446C1321.83 919.294 1321.33 919.099 1320.83 918.923C1320.68 918.87 1320.52 918.801 1320.38 918.94C1320.19 919.135 1320.37 919.279 1320.47 919.425C1320.57 919.581 1320.69 919.725 1320.79 919.879C1320.93 920.098 1321.16 920.331 1320.81 920.554C1320.49 920.762 1320.33 920.499 1320.17 920.291C1319.58 919.502 1319 918.702 1318.41 917.918C1318.15 917.573 1318.13 917.307 1318.55 917.086C1318.84 916.938 1319.09 916.745 1319.38 916.608C1320.35 916.147 1321.18 916.681 1321.16 917.77Z" fill="#A3B0A0"/>
<path d="M1325.46 967.594C1324.99 967.384 1324.8 967.654 1324.67 968.065C1324.58 968.318 1324.48 968.569 1324.36 968.803C1324.26 968.994 1324.23 969.356 1323.91 969.238C1323.59 969.122 1323.53 968.814 1323.67 968.496C1323.84 968.106 1324.01 967.714 1324.19 967.326C1324.27 967.146 1324.34 966.959 1324.15 966.822C1323.99 966.711 1323.84 966.826 1323.71 966.908C1323.45 967.058 1323.2 967.206 1322.95 967.356C1322.74 967.482 1322.55 967.495 1322.39 967.268C1322.23 967.019 1322.37 966.869 1322.57 966.749C1323.55 966.151 1324.53 965.555 1325.52 964.968C1325.62 964.906 1325.78 964.876 1325.89 964.906C1326.26 965.002 1327.03 966.342 1326.91 966.713C1326.7 967.422 1326.15 967.62 1325.46 967.594Z" fill="#A3B0A0"/>
<path d="M1327.99 912.456C1328.79 912.456 1329.34 913.082 1329.06 913.832C1328.84 914.43 1329.08 914.658 1329.52 914.885C1329.73 914.994 1329.94 915.116 1330.14 915.256C1330.29 915.371 1330.61 915.44 1330.5 915.693C1330.38 915.98 1330.05 915.991 1329.8 915.862C1329.35 915.629 1328.93 915.343 1328.5 915.082C1328.34 914.983 1328.14 914.889 1327.97 915.003C1327.76 915.144 1327.95 915.333 1327.97 915.504C1328.03 915.89 1328.66 916.387 1327.99 916.632C1327.44 916.833 1327.44 916.117 1327.28 915.776C1326.94 915.082 1326.69 914.347 1326.36 913.648C1326.13 913.161 1326.25 912.904 1326.76 912.771C1327.17 912.662 1327.55 912.452 1327.99 912.456Z" fill="#A3B0A0"/>
<path d="M1355.13 909.093C1354.8 909.886 1354.96 910.574 1354.83 911.226C1354.78 911.468 1354.82 911.835 1354.44 911.824C1354.03 911.811 1354.14 911.451 1354.15 911.206C1354.21 910.22 1354.27 909.234 1354.36 908.248C1354.38 907.968 1354.37 907.614 1354.77 907.569C1355.12 907.528 1355.28 907.796 1355.43 908.06C1355.88 908.868 1356.33 909.676 1356.83 910.561C1357.16 909.796 1356.97 909.078 1357.12 908.411C1357.18 908.176 1357.14 907.803 1357.53 907.845C1357.95 907.89 1357.8 908.246 1357.79 908.482C1357.74 909.468 1357.67 910.454 1357.59 911.44C1357.56 911.7 1357.56 912.002 1357.2 912.051C1356.88 912.094 1356.71 911.901 1356.57 911.652C1356.11 910.838 1355.65 910.028 1355.13 909.093Z" fill="#A3B0A0"/>
<path d="M1379.6 919.187C1380.05 918.593 1380.49 917.997 1380.94 917.408C1381.08 917.219 1381.24 916.99 1381.52 917.217C1381.76 917.408 1381.62 917.603 1381.49 917.774C1380.85 918.657 1380.2 919.538 1379.55 920.417C1379.42 920.606 1379.28 920.844 1378.98 920.692C1378.71 920.554 1378.63 920.329 1378.64 920.031C1378.65 919.11 1378.64 918.186 1378.64 917.084C1378.16 917.736 1377.76 918.282 1377.35 918.816C1377.2 919.013 1377.05 919.333 1376.72 919.105C1376.38 918.867 1376.66 918.629 1376.8 918.432C1377.41 917.59 1378.03 916.754 1378.65 915.922C1378.79 915.738 1378.91 915.487 1379.22 915.618C1379.5 915.738 1379.6 915.974 1379.59 916.265C1379.54 917.219 1379.49 918.175 1379.45 919.129C1379.49 919.146 1379.55 919.167 1379.6 919.187Z" fill="#A3B0A0"/>
<path d="M1382.76 922.766C1383.13 922.196 1382.65 921.836 1382.14 921.429C1381.76 921.131 1381.46 921.09 1381.07 921.362C1380.81 921.545 1380.44 921.77 1380.24 921.386C1380.01 920.947 1380.53 920.912 1380.76 920.779C1381.68 920.239 1382.62 919.735 1383.55 919.227C1383.81 919.09 1384.06 918.902 1384.36 919.14C1384.65 919.373 1384.56 919.652 1384.47 919.939C1384.12 921.002 1383.79 922.07 1383.44 923.131C1383.37 923.332 1383.33 923.66 1382.97 923.517C1382.72 923.416 1382.61 923.214 1382.76 922.766Z" fill="#A3B0A0"/>
<path d="M1353.2 911.363C1353.24 911.556 1353.17 911.676 1352.98 911.714C1352.65 911.779 1352.45 911.607 1352.36 911.329C1352.16 910.683 1351.72 910.57 1351.12 910.656C1350.61 910.728 1350.18 910.84 1350.06 911.436C1350.01 911.706 1349.83 911.974 1349.5 911.858C1349.16 911.74 1349.34 911.453 1349.41 911.249C1349.77 910.184 1350.13 909.123 1350.51 908.064C1350.59 907.815 1350.68 907.552 1351.02 907.515C1351.35 907.479 1351.5 907.687 1351.62 907.94C1352.12 909.003 1352.62 910.068 1353.12 911.136C1353.15 911.209 1353.17 911.288 1353.2 911.363Z" fill="#A3B0A0"/>
<path d="M1320.41 959.614C1321.05 959.352 1321.69 959.084 1322.33 958.829C1322.55 958.743 1322.81 958.585 1322.95 958.915C1323.09 959.243 1322.78 959.322 1322.58 959.412C1321.6 959.839 1320.61 960.261 1319.63 960.67C1319.42 960.758 1319.18 960.878 1318.99 960.597C1318.82 960.353 1318.9 960.141 1319.04 959.931C1319.54 959.183 1320.05 958.435 1320.48 957.564C1319.84 957.826 1319.22 958.094 1318.58 958.345C1318.33 958.445 1318 958.696 1317.83 958.287C1317.68 957.92 1318.07 957.864 1318.29 957.768C1319.2 957.367 1320.11 956.986 1321.02 956.608C1321.28 956.501 1321.57 956.295 1321.8 956.643C1322.02 956.956 1321.81 957.2 1321.64 957.44C1321.18 958.117 1320.72 958.793 1320.25 959.468C1320.31 959.519 1320.36 959.566 1320.41 959.614Z" fill="#A3B0A0"/>
<path d="M1376.33 914.244C1376.2 915.356 1376.07 916.469 1375.92 917.577C1375.89 917.83 1376.02 918.252 1375.56 918.224C1375.17 918.201 1375.13 917.851 1375.18 917.551C1375.27 916.968 1374.95 916.7 1374.49 916.434C1373.98 916.143 1373.58 916.087 1373.15 916.552C1372.97 916.752 1372.7 916.927 1372.46 916.67C1372.16 916.353 1372.54 916.197 1372.71 916.049C1373.58 915.301 1374.47 914.574 1375.35 913.841C1375.56 913.663 1375.78 913.524 1376.07 913.704C1376.28 913.832 1376.35 914.01 1376.33 914.244Z" fill="#A3B0A0"/>
<path d="M1324.07 914.227C1325.23 914.207 1326.44 915.423 1326.43 916.602C1326.43 917.547 1325.45 918.437 1324.38 918.462C1323.24 918.488 1322.09 917.339 1322.05 916.147C1322.02 915.082 1322.9 914.246 1324.07 914.227ZM1324.45 917.778C1325.15 917.791 1325.6 917.395 1325.62 916.752C1325.63 915.881 1324.77 914.857 1323.99 914.835C1323.39 914.818 1322.82 915.324 1322.8 915.903C1322.77 916.754 1323.65 917.761 1324.45 917.778Z" fill="#A3B0A0"/>
<path d="M1319.04 952.208C1320 952.221 1320.75 952.804 1320.98 953.704C1321.17 954.484 1320.82 955.228 1319.99 955.697C1319.22 956.13 1318.41 956.351 1317.54 955.972C1316.22 955.395 1316.03 953.697 1317.17 952.834C1317.72 952.42 1318.35 952.221 1319.04 952.208ZM1319.03 952.969C1318.57 952.954 1318.1 953.121 1317.68 953.419C1317.25 953.721 1316.88 954.079 1317.13 954.679C1317.38 955.275 1317.86 955.511 1318.48 955.427C1318.9 955.369 1319.3 955.234 1319.67 955.007C1320.18 954.696 1320.46 954.28 1320.28 953.678C1320.11 953.093 1319.65 952.943 1319.03 952.969Z" fill="#A3B0A0"/>
<path d="M1375.13 969.092C1374.42 968.749 1374.06 969.161 1373.68 969.688C1373.42 970.061 1373.4 970.34 1373.69 970.68C1373.87 970.903 1374.12 971.201 1373.77 971.433C1373.4 971.681 1373.28 971.24 1373.13 971.038C1372.52 970.26 1371.93 969.465 1371.35 968.666C1371.18 968.44 1370.92 968.226 1371.13 967.885C1371.32 967.557 1371.63 967.628 1371.92 967.682C1373.04 967.898 1374.17 968.123 1375.29 968.37C1375.48 968.413 1375.84 968.395 1375.76 968.764C1375.69 969.081 1375.43 969.156 1375.13 969.092Z" fill="#A3B0A0"/>
<path d="M1314.8 920.404C1314.8 919.42 1315.75 918.561 1316.84 918.563C1318.01 918.565 1319.26 919.781 1319.26 920.914C1319.26 921.858 1318.24 922.771 1317.2 922.773C1316.04 922.775 1314.8 921.549 1314.8 920.404ZM1317.34 922.087C1317.97 922.091 1318.51 921.596 1318.51 921.028C1318.51 920.252 1317.54 919.275 1316.75 919.253C1316.05 919.236 1315.58 919.635 1315.56 920.252C1315.54 921.09 1316.5 922.081 1317.34 922.087Z" fill="#A3B0A0"/>
<path d="M1324.73 962.267C1324.66 962.372 1324.59 962.516 1324.48 962.632C1323.74 963.468 1322.99 964.301 1322.23 965.127C1322.08 965.287 1321.92 965.57 1321.65 965.309C1321.4 965.075 1321.48 964.831 1321.69 964.61C1321.99 964.304 1322.18 963.997 1321.89 963.555C1321.61 963.123 1321.4 962.653 1320.74 962.782C1320.59 962.812 1320.42 962.79 1320.27 962.771C1320.09 962.75 1319.98 962.638 1319.97 962.456C1319.95 962.276 1320.1 962.237 1320.23 962.22C1321.55 962.057 1322.87 961.892 1324.19 961.749C1324.5 961.71 1324.68 961.916 1324.73 962.267Z" fill="#A3B0A0"/>
<path d="M1384.66 949.899C1384.59 950.246 1384.37 950.405 1384.08 950.381C1383.37 950.321 1383.15 950.756 1382.93 951.333C1382.72 951.903 1383.06 952.1 1383.4 952.36C1383.61 952.521 1383.75 952.735 1383.55 952.971C1383.36 953.211 1383.16 952.994 1383.01 952.879C1382.06 952.184 1381.13 951.479 1380.2 950.774C1380.03 950.645 1379.86 950.508 1379.94 950.244C1380.02 949.974 1380.2 949.871 1380.47 949.856C1381.72 949.785 1382.96 949.708 1384.21 949.638C1384.42 949.625 1384.65 949.614 1384.66 949.899Z" fill="#A3B0A0"/>
<path d="M1377.64 965.615C1377.68 966.651 1376.65 967.523 1375.69 967.221C1374.78 966.934 1373.92 966.496 1373.03 966.117C1372.82 966.025 1372.67 965.881 1372.8 965.617C1372.93 965.369 1373.13 965.375 1373.35 965.467C1373.93 965.723 1374.51 965.995 1375.1 966.241C1375.4 966.363 1375.7 966.479 1376.01 966.535C1376.43 966.608 1376.75 966.423 1376.9 966.018C1377.06 965.585 1376.86 965.29 1376.48 965.107C1375.75 964.762 1375.02 964.436 1374.3 964.098C1374.09 964.001 1373.79 963.943 1373.91 963.609C1374.03 963.277 1374.29 963.386 1374.51 963.487C1375.31 963.849 1376.12 964.211 1376.91 964.591C1377.35 964.803 1377.6 965.169 1377.64 965.615Z" fill="#A3B0A0"/>
<path d="M1388.43 923.596C1388.34 923.877 1388.18 923.997 1387.95 923.834C1387.75 923.699 1387.59 923.517 1387.43 923.339C1387.15 923.036 1386.95 922.73 1386.47 923.142C1385.99 923.553 1386.23 923.789 1386.51 924.113C1386.68 924.308 1387.09 924.522 1386.73 924.818C1386.39 925.094 1386.2 924.676 1386.06 924.47C1385.67 923.915 1385.38 924.128 1384.97 924.458C1384.46 924.863 1384.76 925.09 1385.03 925.414C1385.27 925.692 1385.88 926.005 1385.54 926.333C1385.1 926.768 1384.84 926.078 1384.6 925.814C1383.47 924.599 1383.27 924.968 1384.68 923.701C1385.26 923.187 1385.86 922.691 1386.44 922.177C1386.69 921.948 1386.93 921.881 1387.19 922.168C1387.55 922.563 1387.92 922.951 1388.27 923.345C1388.34 923.42 1388.38 923.521 1388.43 923.596Z" fill="#A3B0A0"/>
<path d="M1376.72 961.225C1376.56 960.955 1376.39 960.655 1376.22 960.359C1376.08 960.132 1376.01 959.866 1376.25 959.716C1376.57 959.519 1376.62 959.89 1376.76 960.051C1376.83 960.13 1376.89 960.224 1376.93 960.321C1377.33 961.307 1378.02 961.592 1379.04 961.324C1379.37 961.236 1379.99 961.033 1380.06 961.489C1380.16 962.072 1379.49 961.948 1379.1 962.036C1379.05 962.049 1379 962.059 1378.95 962.068C1378.06 962.209 1378.06 962.209 1378.51 962.951C1378.58 963.065 1378.65 963.178 1378.72 963.292C1378.87 963.532 1379 963.838 1378.72 964.003C1378.37 964.218 1378.25 963.802 1378.18 963.603C1377.7 962.263 1376.68 962.134 1375.48 962.329C1375.27 962.364 1374.95 962.544 1374.89 962.173C1374.86 961.89 1375.1 961.68 1375.39 961.635C1375.7 961.586 1376.02 961.586 1376.34 961.562C1376.53 961.549 1376.73 961.534 1376.72 961.225Z" fill="#A3B0A0"/>
<path d="M1358.64 910.703C1358.65 908.63 1360.36 907.627 1362.25 908.591C1362.5 908.722 1362.86 908.842 1362.66 909.224C1362.46 909.603 1362.2 909.286 1361.98 909.185C1360.75 908.6 1360 908.827 1359.59 909.931C1359.12 911.226 1359.7 912.081 1361.09 912.145C1361.32 912.156 1361.72 911.959 1361.73 912.373C1361.75 912.784 1361.34 912.741 1361.06 912.75C1359.61 912.806 1358.64 911.987 1358.64 910.703Z" fill="#A3B0A0"/>
<path d="M1367.15 909.787C1367.6 909.845 1368.01 909.965 1368.37 910.197C1368.57 910.319 1368.6 910.497 1368.51 910.683C1368.4 910.932 1368.21 910.827 1368.04 910.743C1367.94 910.696 1367.86 910.634 1367.76 910.589C1367.46 910.45 1367.12 910.341 1366.88 910.636C1366.62 910.956 1366.86 911.23 1367.08 911.477C1367.31 911.734 1367.56 911.98 1367.77 912.248C1368.08 912.632 1368.15 913.067 1367.94 913.521C1367.72 914.012 1367.29 914.229 1366.79 914.246C1366.3 914.263 1365.84 914.105 1365.42 913.847C1365.19 913.704 1365.05 913.526 1365.22 913.256C1365.4 912.958 1365.58 913.189 1365.75 913.273C1365.94 913.365 1366.13 913.487 1366.33 913.545C1366.62 913.627 1366.92 913.652 1367.13 913.365C1367.34 913.069 1367.2 912.806 1367 912.568C1366.75 912.261 1366.47 911.974 1366.22 911.659C1365.94 911.301 1365.83 910.902 1366.06 910.467C1366.3 910.023 1366.7 909.852 1367.15 909.787Z" fill="#A3B0A0"/>
<path d="M1369.02 913.847C1369.15 912.863 1369.6 912.006 1370.6 911.579C1371.6 911.155 1372.41 911.665 1373.17 912.255C1373.39 912.424 1373.61 912.632 1373.35 912.915C1373.08 913.206 1372.93 912.878 1372.76 912.75C1371.59 911.828 1370.77 911.916 1370.12 913.046C1369.49 914.143 1369.86 915.033 1371.09 915.371C1371.33 915.44 1371.8 915.356 1371.71 915.779C1371.62 916.197 1371.21 916.059 1370.9 915.98C1369.69 915.671 1368.97 914.876 1369.02 913.847Z" fill="#A3B0A0"/>
<path d="M1331.98 915.356C1331.71 915.391 1331.59 915.23 1331.5 915.015C1331.1 914.053 1330.71 913.091 1330.32 912.126C1330.27 912.008 1330.25 911.86 1330.27 911.742C1330.33 911.509 1332.27 910.825 1332.46 910.973C1332.7 911.149 1332.65 911.348 1332.4 911.464C1332.13 911.586 1331.85 911.674 1331.58 911.766C1331.22 911.884 1331.13 912.085 1331.28 912.439C1331.41 912.756 1331.54 912.915 1331.93 912.814C1332.25 912.73 1332.74 912.31 1332.91 912.775C1333.08 913.268 1332.43 913.193 1332.14 913.341C1331.81 913.506 1331.79 913.695 1331.91 913.984C1332.03 914.289 1332.13 914.623 1332.57 914.516C1332.9 914.432 1333.23 914.308 1333.56 914.212C1333.74 914.16 1333.94 914.107 1334.03 914.357C1334.1 914.567 1333.94 914.662 1333.8 914.715C1333.19 914.938 1332.59 915.144 1331.98 915.356Z" fill="#A3B0A0"/>
<path d="M1335.42 909.768C1335.75 909.76 1336.02 909.77 1336.05 910.083C1336.07 910.441 1335.75 910.379 1335.53 910.42C1335.2 910.48 1334.75 910.394 1334.71 910.866C1334.66 911.393 1335.16 911.365 1335.49 911.474C1335.8 911.573 1336.12 911.607 1336.42 911.714C1336.88 911.877 1337.19 912.199 1337.22 912.711C1337.25 913.183 1337.01 913.532 1336.62 913.766C1336.2 914.014 1335.73 914.139 1335.24 914.134C1335 914.132 1334.82 914.027 1334.81 913.766C1334.8 913.506 1335.02 913.504 1335.2 913.476C1335.68 913.406 1336.41 913.588 1336.43 912.908C1336.45 912.216 1335.66 912.317 1335.19 912.16C1334.6 911.967 1333.97 911.837 1333.93 911.037C1333.91 910.471 1334.24 910.148 1334.72 909.961C1334.97 909.865 1335.23 909.817 1335.42 909.768Z" fill="#A3B0A0"/>
<path d="M1314.27 947.959C1314.23 947.678 1314.32 947.477 1314.63 947.453C1314.96 947.426 1314.9 947.7 1314.94 947.895C1314.99 948.101 1315.03 948.313 1315.11 948.504C1315.23 948.772 1315.45 948.911 1315.75 948.877C1316.02 948.847 1316.18 948.669 1316.25 948.424C1316.37 948.015 1316.43 947.586 1316.58 947.192C1316.82 946.572 1317.47 946.317 1318.1 946.538C1318.63 946.72 1319.16 947.612 1319.04 948.081C1319 948.264 1318.88 948.347 1318.71 948.373C1318.5 948.403 1318.43 948.268 1318.4 948.096C1318.36 947.914 1318.35 947.723 1318.28 947.552C1318.19 947.314 1318.01 947.155 1317.73 947.164C1317.49 947.173 1317.35 947.351 1317.29 947.561C1317.21 947.788 1317.18 948.026 1317.12 948.257C1316.9 949.248 1316.41 949.693 1315.65 949.61C1314.95 949.535 1314.31 948.765 1314.27 947.959Z" fill="#A3B0A0"/>
<path d="M1386.29 938.38C1384.31 938.395 1383.32 936.774 1384.25 935.055C1384.38 934.817 1384.52 934.522 1384.85 934.719C1385.16 934.907 1384.89 935.137 1384.8 935.336C1384.2 936.65 1384.82 937.63 1386.27 937.636C1387.14 937.64 1387.61 937.064 1387.64 935.943C1387.64 935.765 1387.54 935.533 1387.81 935.497C1388.08 935.463 1388.17 935.675 1388.23 935.891C1388.55 937.053 1387.52 938.371 1386.29 938.38Z" fill="#A3B0A0"/>
<path d="M1343.18 908.002C1343.36 908.002 1343.57 907.963 1343.63 908.21C1343.71 908.514 1343.47 908.568 1343.27 908.624C1343.09 908.673 1342.9 908.688 1342.71 908.705C1342.28 908.744 1342 908.887 1342.09 909.406C1342.17 909.854 1342.35 910.085 1342.84 909.925C1342.99 909.875 1343.16 909.893 1343.32 909.88C1343.49 909.865 1343.66 909.897 1343.69 910.09C1343.74 910.334 1343.57 910.443 1343.37 910.448C1342.43 910.465 1342.26 910.932 1342.5 911.753C1342.58 912.002 1342.75 912.452 1342.24 912.518C1341.75 912.581 1341.8 912.135 1341.75 911.847C1341.56 910.906 1341.42 909.957 1341.23 909.018C1341.13 908.549 1341.26 908.317 1341.76 908.259C1342.23 908.199 1342.7 908.088 1343.18 908.002Z" fill="#A3B0A0"/>
<path d="M1389.4 930.794C1389.4 931.208 1389.26 931.581 1389.04 931.921C1388.92 932.106 1388.74 932.144 1388.55 932.033C1388.37 931.921 1388.44 931.761 1388.51 931.613C1388.56 931.516 1388.62 931.424 1388.66 931.328C1388.82 930.972 1388.95 930.597 1388.55 930.324C1388.17 930.067 1387.91 930.359 1387.65 930.592C1387.37 930.841 1387.12 931.137 1386.81 931.338C1386.27 931.694 1385.61 931.503 1385.3 930.95C1385.05 930.498 1385.22 929.467 1385.59 929.246C1385.71 929.171 1385.85 929.152 1385.96 929.248C1386.02 929.306 1386.06 929.443 1386.04 929.527C1385.99 929.705 1385.9 929.874 1385.83 930.044C1385.72 930.29 1385.72 930.524 1385.96 930.682C1386.2 930.839 1386.42 930.745 1386.61 930.573C1386.89 930.322 1387.14 930.044 1387.42 929.799C1387.82 929.454 1388.27 929.356 1388.76 929.602C1389.24 929.844 1389.42 930.269 1389.4 930.794Z" fill="#A3B0A0"/>
<path d="M1384.84 948.122C1384.18 947.944 1383.34 947.76 1382.54 947.488C1381.92 947.28 1381.52 947.32 1381.38 948.043C1381.33 948.272 1381.23 948.557 1380.9 948.426C1380.58 948.294 1380.75 948.009 1380.82 947.803C1381.05 947.068 1381.31 946.341 1381.56 945.612C1381.64 945.383 1381.7 945.106 1382.03 945.222C1382.33 945.325 1382.22 945.601 1382.14 945.769C1381.84 946.431 1382.15 946.667 1382.75 946.808C1383.53 946.99 1384.29 947.23 1385.06 947.445C1385.27 947.505 1385.48 947.58 1385.41 947.869C1385.37 948.079 1385.23 948.182 1384.84 948.122Z" fill="#A3B0A0"/>
<path d="M1382.48 956.252C1382.17 956.861 1381.88 957.461 1381.56 958.042C1381.45 958.237 1381.22 958.164 1381.05 958.096C1380 957.686 1378.96 957.271 1377.92 956.853C1377.73 956.773 1377.5 956.69 1377.59 956.402C1377.68 956.092 1377.92 956.094 1378.17 956.188C1378.94 956.484 1379.73 956.745 1380.48 957.101C1381.09 957.393 1381.41 957.253 1381.61 956.634C1381.69 956.411 1381.83 956.205 1381.96 956.008C1382.05 955.879 1382.2 955.888 1382.31 955.978C1382.38 956.036 1382.41 956.143 1382.48 956.252Z" fill="#A3B0A0"/>
<path d="M1363.15 912.653C1363.36 911.704 1363.61 910.583 1363.87 909.466C1363.93 909.241 1364.07 909.08 1364.34 909.153C1364.6 909.222 1364.67 909.404 1364.61 909.646C1364.36 910.767 1364.11 911.886 1363.86 913.007C1363.8 913.251 1363.65 913.374 1363.39 913.324C1363.1 913.269 1363.11 913.048 1363.15 912.653Z" fill="#A3B0A0"/>
<path d="M1386.88 941.085C1385.87 940.8 1384.74 940.483 1383.62 940.165C1383.39 940.101 1383.22 939.987 1383.32 939.709C1383.42 939.452 1383.61 939.419 1383.84 939.484C1384.97 939.795 1386.09 940.103 1387.22 940.425C1387.43 940.485 1387.62 940.603 1387.52 940.886C1387.43 941.149 1387.22 941.149 1386.88 941.085Z" fill="#A3B0A0"/>
<path d="M1382.99 954.737C1382.93 955.014 1382.74 955.125 1382.46 955.018C1381.34 954.583 1380.23 954.137 1379.12 953.693C1378.92 953.614 1378.82 953.475 1378.92 953.254C1379.01 953.05 1379.18 952.977 1379.38 953.057C1380.52 953.498 1381.66 953.946 1382.8 954.398C1382.92 954.448 1383.01 954.557 1382.99 954.737Z" fill="#A3B0A0"/>
<path d="M1319.52 950.491C1319.53 950.761 1319.3 950.819 1319.1 950.877C1318.06 951.194 1317.01 951.5 1315.95 951.803C1315.69 951.878 1315.4 951.94 1315.32 951.56C1315.25 951.222 1315.53 951.185 1315.76 951.117C1316.78 950.81 1317.8 950.499 1318.83 950.199C1319.11 950.116 1319.42 950.032 1319.52 950.491Z" fill="#A3B0A0"/>
<path d="M1324.97 970.974C1324.82 970.964 1324.73 970.88 1324.66 970.758C1324.57 970.595 1324.59 970.445 1324.75 970.344C1325.78 969.69 1326.81 969.036 1327.84 968.391C1327.99 968.297 1328.15 968.342 1328.26 968.488C1328.38 968.629 1328.42 968.805 1328.26 968.908C1327.2 969.602 1326.12 970.282 1325.05 970.966C1325.03 970.976 1325 970.972 1324.97 970.974Z" fill="#A3B0A0"/>
<path d="M1380.9 959.764C1380.84 960.145 1380.64 960.272 1380.33 960.154C1379.23 959.742 1378.13 959.322 1377.04 958.895C1376.86 958.827 1376.71 958.715 1376.78 958.473C1376.85 958.257 1377 958.139 1377.2 958.212C1378.38 958.647 1379.54 959.099 1380.71 959.558C1380.79 959.59 1380.85 959.704 1380.9 959.764Z" fill="#A3B0A0"/>
<path d="M1387.97 934.14C1387.1 933.898 1386.07 933.619 1385.05 933.325C1384.84 933.265 1384.64 933.15 1384.74 932.867C1384.84 932.599 1385.05 932.607 1385.27 932.665C1386.3 932.94 1387.33 933.216 1388.35 933.497C1388.57 933.559 1388.75 933.677 1388.66 933.953C1388.56 934.217 1388.35 934.217 1387.97 934.14Z" fill="#A3B0A0"/>
<path d="M1338.21 957.965C1338.21 958.027 1338.21 958.126 1338.2 958.222C1338.18 958.394 1338.25 958.64 1337.96 958.638C1337.73 958.636 1337.66 958.443 1337.64 958.246C1337.58 957.581 1337.52 956.915 1337.49 956.248C1337.48 956.032 1337.4 955.721 1337.76 955.684C1338.06 955.652 1338.16 955.888 1338.24 956.126C1338.31 956.321 1338.4 956.51 1338.51 956.791C1338.61 956.527 1338.67 956.36 1338.73 956.188C1338.79 956.01 1338.91 955.935 1339.1 955.965C1339.27 955.993 1339.42 956.083 1339.43 956.257C1339.49 957.082 1339.69 957.897 1339.62 958.73C1339.61 958.87 1339.55 959.007 1339.38 958.983C1339.29 958.97 1339.13 958.885 1339.13 958.835C1339.15 958.227 1338.67 958.109 1338.21 957.965Z" fill="#A3B0A0"/>
<path d="M1338.11 951.288C1338.12 951.528 1338.14 951.698 1337.97 951.79C1337.77 951.897 1337.61 951.82 1337.49 951.64C1337.23 951.232 1336.98 951.372 1336.74 951.661C1336.6 951.824 1336.43 951.91 1336.25 951.798C1336.04 951.668 1336.16 951.457 1336.22 951.295C1336.48 950.651 1336.75 950.013 1337.02 949.376C1337.12 949.145 1337.27 948.956 1337.56 948.995C1337.89 949.037 1337.89 949.307 1337.92 949.539C1338 950.148 1338.06 950.757 1338.11 951.288Z" fill="#A3B0A0"/>
<path d="M1353.01 928.588C1352.3 929.679 1352.3 929.679 1351.51 928.685C1351.51 929.156 1351.52 929.484 1351.51 929.81C1351.5 929.937 1351.49 930.093 1351.31 930.106C1351.14 930.119 1351.09 929.977 1351.07 929.849C1350.93 929.27 1350.95 928.683 1350.98 928.097C1350.99 927.922 1351.1 927.808 1351.29 927.789C1351.54 927.763 1351.69 927.934 1351.79 928.123C1352.11 928.758 1352.39 928.901 1352.68 928.1C1352.77 927.862 1352.94 927.686 1353.23 927.737C1353.5 927.787 1353.53 928.027 1353.54 928.23C1353.58 928.736 1353.58 929.242 1353.59 929.75C1353.59 929.883 1353.55 930.027 1353.38 930.048C1353.17 930.076 1353.09 929.928 1353.08 929.761C1353.05 929.418 1353.04 929.071 1353.01 928.588Z" fill="#A3B0A0"/>
<path d="M1338.74 939.094C1339.03 938.554 1339.22 938.189 1339.42 937.829C1339.55 937.595 1339.76 937.445 1340.02 937.561C1340.38 937.722 1340.12 937.977 1340.03 938.161C1339.74 938.759 1339.41 939.342 1339.1 939.93C1338.96 940.189 1338.76 940.335 1338.45 940.29C1338.13 940.245 1338.1 939.99 1338.07 939.754C1337.99 939.173 1337.94 938.588 1337.88 938.005C1337.85 937.773 1337.89 937.567 1338.17 937.531C1338.48 937.492 1338.61 937.688 1338.64 937.953C1338.68 938.262 1338.7 938.573 1338.74 939.094Z" fill="#A3B0A0"/>
<path d="M1339.75 960.705C1339.92 960.732 1340.02 960.758 1340.12 960.76C1340.33 960.765 1340.55 960.717 1340.63 961.007C1340.71 961.285 1340.53 961.393 1340.32 961.472C1340.17 961.528 1339.99 961.558 1340.03 961.774C1340.08 962.006 1340.26 962.04 1340.47 961.989C1340.73 961.922 1340.97 961.937 1341.02 962.254C1341.08 962.649 1340.72 962.632 1340.49 962.711C1339.94 962.902 1339.52 962.844 1339.4 962.139C1339.31 961.618 1339.14 961.11 1339 960.597C1338.94 960.334 1338.85 960.053 1339.2 959.929C1339.54 959.809 1340.01 959.564 1340.25 959.809C1340.82 960.359 1339.98 960.329 1339.75 960.705Z" fill="#A3B0A0"/>
<path d="M1341.3 964.449C1341.5 964.029 1340.92 963.303 1341.61 963.15C1342.16 963.026 1342.18 963.798 1342.43 964.177C1342.68 964.58 1342.87 965.03 1343.08 965.459C1343.16 965.605 1343.23 965.768 1343.08 965.896C1342.94 966.021 1342.77 965.971 1342.66 965.834C1342.3 965.395 1342.11 965.506 1342 966.008C1341.97 966.145 1341.85 966.231 1341.7 966.231C1341.49 966.228 1341.44 966.053 1341.42 965.903C1341.37 965.427 1341.34 964.947 1341.3 964.449Z" fill="#A3B0A0"/>
<path d="M1344.66 929.161C1344.78 928.822 1344.47 928.224 1344.89 928.189C1345.31 928.153 1345.19 928.766 1345.22 929.103C1345.31 929.984 1345.42 930.074 1346.48 930.003C1347.22 929.954 1346.89 929.398 1346.94 929.036C1346.96 928.86 1346.91 928.665 1346.86 928.49C1346.8 928.312 1346.52 928.136 1346.85 927.973C1347.07 927.866 1347.33 927.847 1347.55 927.954C1347.82 928.084 1347.57 928.256 1347.56 928.417C1347.51 928.935 1347.36 929.478 1347.7 929.956C1347.9 930.254 1347.76 930.337 1347.49 930.357C1346.78 930.408 1346.06 930.489 1345.35 930.479C1344.34 930.468 1344.84 929.632 1344.66 929.161Z" fill="#A3B0A0"/>
<path d="M1338.3 929.684C1338.51 929.306 1338.38 928.985 1338.43 928.68C1338.45 928.552 1338.44 928.4 1338.62 928.383C1338.8 928.365 1338.84 928.509 1338.85 928.64C1338.9 929.169 1338.94 929.699 1338.97 930.228C1338.98 930.417 1338.94 930.607 1338.71 930.657C1338.5 930.7 1338.35 930.603 1338.23 930.44C1337.95 930.054 1337.67 929.666 1337.23 929.285C1337.23 929.658 1337.24 930.031 1337.23 930.404C1337.23 930.535 1337.2 930.683 1337.03 930.698C1336.86 930.71 1336.8 930.573 1336.77 930.447C1336.66 929.868 1336.6 929.27 1336.71 928.702C1336.82 928.177 1337.21 928.295 1337.48 928.586C1337.78 928.908 1338.01 929.287 1338.3 929.684Z" fill="#A3B0A0"/>
<path d="M1336.45 930.509C1336.4 930.627 1336.38 930.725 1336.33 930.758C1336.2 930.837 1336.07 930.785 1335.98 930.672C1335.46 930.033 1334.97 929.913 1334.48 930.698C1334.4 930.824 1334.28 930.888 1334.14 930.826C1333.98 930.753 1334.02 930.605 1334.07 930.479C1334.28 929.902 1334.49 929.324 1334.72 928.753C1334.85 928.417 1335.19 928.254 1335.39 928.558C1335.81 929.176 1336.11 929.866 1336.45 930.509Z" fill="#A3B0A0"/>
<path d="M1340.79 929.448C1341.08 929.248 1341.43 929.236 1341.73 929.416C1341.98 929.57 1341.91 929.9 1341.87 930.157C1341.8 930.56 1341.43 930.599 1341.13 930.646C1340.49 930.747 1339.87 930.685 1339.52 930.052C1339.25 929.581 1339.24 929.058 1339.62 928.631C1340.13 928.061 1340.81 928.127 1341.48 928.25C1341.64 928.277 1341.8 928.393 1341.74 928.586C1341.69 928.736 1341.54 928.7 1341.4 928.68C1341.14 928.646 1340.87 928.59 1340.61 928.616C1340.02 928.678 1339.86 929.081 1339.95 929.596C1340.04 930.166 1340.47 930.316 1340.97 930.232C1341.3 930.177 1341.46 929.975 1341.06 929.737C1340.95 929.679 1340.78 929.696 1340.79 929.448Z" fill="#A3B0A0"/>
<path d="M1331.36 930.88C1330.88 931.09 1330.42 931.038 1329.98 931.1C1329.93 931.107 1329.86 931.109 1329.83 931.083C1329.07 930.552 1329.58 929.763 1329.43 929.103C1329.34 928.676 1329.7 928.646 1330 928.655C1330.4 928.665 1331.06 928.331 1331.14 928.775C1331.22 929.255 1330.48 928.92 1330.18 929.148C1330.14 929.178 1330.12 929.231 1330.09 929.289C1330.32 929.626 1330.67 929.418 1330.96 929.488C1331.09 929.518 1331.25 929.518 1331.24 929.696C1331.24 929.874 1331.08 929.874 1330.95 929.894C1330.82 929.913 1330.68 929.913 1330.56 929.945C1330.33 930.001 1330.03 930.007 1330.07 930.346C1330.1 930.64 1330.37 930.58 1330.57 930.607C1330.82 930.637 1331.1 930.5 1331.36 930.88Z" fill="#A3B0A0"/>
<path d="M1344.18 929.176C1343.89 929.514 1343.55 929.368 1343.25 929.413C1343.04 929.446 1342.89 929.519 1342.89 929.75C1342.89 929.973 1343.02 930.076 1343.24 930.099C1343.56 930.136 1343.91 930.031 1344.24 930.262C1343.04 930.923 1342.38 930.592 1342.31 929.368C1342.25 928.162 1342.71 927.765 1343.85 928.052C1343.98 928.087 1344.12 928.125 1344.1 928.284C1344.09 928.357 1343.97 928.425 1343.88 928.47C1343.59 928.627 1342.95 928.44 1343 928.762C1343.07 929.233 1343.69 928.845 1344.03 929.028C1344.07 929.058 1344.1 929.101 1344.18 929.176Z" fill="#A3B0A0"/>
<path d="M1349.98 928.76C1349.95 928.526 1349.94 928.393 1349.93 928.26C1349.92 928.095 1349.93 927.917 1350.13 927.885C1350.35 927.849 1350.38 928.029 1350.41 928.192C1350.42 928.245 1350.42 928.297 1350.43 928.35C1350.51 928.983 1350.71 929.658 1350.09 930.127C1349.68 930.44 1349.17 930.464 1348.74 930.168C1348.07 929.714 1348.26 928.985 1348.23 928.335C1348.23 928.179 1348.25 927.988 1348.46 927.975C1348.66 927.962 1348.72 928.138 1348.74 928.299C1348.77 928.562 1348.79 928.83 1348.79 929.096C1348.79 929.508 1348.89 929.891 1349.37 929.898C1349.89 929.906 1350 929.51 1349.98 929.06C1349.97 928.925 1349.98 928.792 1349.98 928.76Z" fill="#A3B0A0"/>
<path d="M1332.81 930.339C1333 929.808 1333.15 929.39 1333.31 928.978C1333.39 928.792 1333.45 928.485 1333.71 928.573C1334.05 928.687 1333.83 928.972 1333.76 929.176C1333.61 929.63 1333.43 930.076 1333.27 930.524C1333.19 930.73 1333.1 930.923 1332.85 930.953C1332.59 930.983 1332.45 930.82 1332.35 930.622C1332.09 930.099 1331.83 929.574 1331.58 929.045C1331.51 928.901 1331.45 928.723 1331.63 928.623C1331.81 928.524 1331.94 928.661 1332.02 928.803C1332.27 929.266 1332.5 929.739 1332.81 930.339Z" fill="#A3B0A0"/>
<path d="M1367.18 935.773C1366.11 935.773 1365.04 935.756 1363.97 935.78C1363.37 935.793 1363.03 935.585 1362.88 934.976C1362.57 933.758 1362.19 932.56 1361.84 931.351C1361.79 931.154 1361.65 930.927 1361.86 930.753C1362.06 930.584 1362.27 930.743 1362.46 930.818C1363.11 931.079 1363.76 931.321 1364.38 931.638C1364.91 931.913 1365.24 931.857 1365.53 931.3C1365.91 930.592 1366.36 929.924 1366.78 929.244C1367.23 928.545 1367.35 928.545 1367.84 929.244C1368.25 929.836 1368.66 930.43 1369.05 931.038C1369.34 931.484 1369.67 931.626 1370.2 931.476C1370.97 931.257 1371.76 931.103 1372.54 930.935C1373.02 930.833 1373.23 930.995 1373.01 931.488C1372.46 932.766 1371.91 934.041 1371.37 935.323C1371.19 935.743 1370.88 935.825 1370.47 935.82C1369.37 935.808 1368.27 935.816 1367.18 935.816C1367.18 935.801 1367.18 935.786 1367.18 935.773Z" fill="#A3B0A0"/>
</g>
<rect x="642" y="469" width="206" height="58" rx="29" fill="#3F635E"/>
<path d="M693.5 479C688.275 479 684 484.32 684 490.875C684 497.43 688.275 502.75 693.5 502.75C698.725 502.75 703 497.43 703 490.875C703 484.32 698.725 479 693.5 479ZM683.573 502.75C678.537 502.987 674.5 507.12 674.5 512.25V517H712.5V512.25C712.5 507.12 708.51 502.987 703.428 502.75C700.863 505.648 697.347 507.5 693.5 507.5C689.653 507.5 686.137 505.648 683.573 502.75Z" fill="#A3B0A0"/>
<path d="M739.079 505.198C737.885 505.198 736.913 504.994 736.163 504.586C735.419 504.172 734.87 503.593 734.516 502.849C734.168 502.099 733.994 501.226 733.994 500.23C733.994 499.978 733.994 499.654 733.994 499.258C733.994 498.856 733.994 498.412 733.994 497.926C733.994 497.44 733.994 496.951 733.994 496.459C733.994 495.649 733.994 494.911 733.994 494.245C733.994 493.573 733.994 492.88 733.994 492.166H735.614C735.614 492.88 735.614 493.573 735.614 494.245C735.614 494.911 735.614 495.649 735.614 496.459V500.068C735.614 500.842 735.728 501.508 735.956 502.066C736.184 502.624 736.55 503.053 737.054 503.353C737.564 503.647 738.239 503.794 739.079 503.794C739.925 503.794 740.597 503.647 741.095 503.353C741.599 503.053 741.962 502.624 742.184 502.066C742.406 501.508 742.517 500.836 742.517 500.05V496.459C742.517 495.649 742.517 494.911 742.517 494.245C742.517 493.573 742.517 492.88 742.517 492.166H744.137C744.137 492.88 744.137 493.573 744.137 494.245C744.137 494.911 744.137 495.649 744.137 496.459C744.137 496.951 744.137 497.443 744.137 497.935C744.137 498.421 744.137 498.865 744.137 499.267C744.137 499.669 744.137 499.99 744.137 500.23C744.137 501.226 743.96 502.099 743.606 502.849C743.252 503.593 742.703 504.172 741.959 504.586C741.215 504.994 740.255 505.198 739.079 505.198ZM749.716 505.198C749.344 505.198 748.969 505.168 748.591 505.108C748.219 505.048 747.868 504.97 747.538 504.874C747.208 504.772 746.92 504.658 746.674 504.532L746.791 503.137C747.067 503.293 747.361 503.431 747.673 503.551C747.991 503.665 748.318 503.755 748.654 503.821C748.996 503.881 749.338 503.911 749.68 503.911C750.01 503.911 750.313 503.875 750.589 503.803C750.871 503.725 751.093 503.587 751.255 503.389C751.423 503.185 751.507 502.891 751.507 502.507C751.507 502.255 751.435 502.048 751.291 501.886C751.147 501.724 750.904 501.577 750.562 501.445C750.226 501.313 749.77 501.166 749.194 501.004C748.72 500.872 748.297 500.71 747.925 500.518C747.553 500.326 747.259 500.068 747.043 499.744C746.833 499.42 746.728 498.997 746.728 498.475C746.728 497.665 746.992 497.029 747.52 496.567C748.054 496.099 748.771 495.865 749.671 495.865C750.043 495.865 750.403 495.898 750.751 495.964C751.099 496.024 751.42 496.105 751.714 496.207C752.008 496.309 752.263 496.417 752.479 496.531L752.353 497.926C752.065 497.746 751.768 497.599 751.462 497.485C751.156 497.365 750.862 497.281 750.58 497.233C750.298 497.179 750.049 497.152 749.833 497.152C749.587 497.152 749.341 497.188 749.095 497.26C748.855 497.326 748.654 497.452 748.492 497.638C748.33 497.818 748.249 498.079 748.249 498.421C748.249 498.667 748.306 498.874 748.42 499.042C748.534 499.21 748.732 499.36 749.014 499.492C749.296 499.624 749.686 499.762 750.184 499.906C750.778 500.08 751.285 500.263 751.705 500.455C752.131 500.641 752.458 500.887 752.686 501.193C752.914 501.499 753.028 501.922 753.028 502.462C753.028 502.984 752.914 503.452 752.686 503.866C752.458 504.274 752.101 504.598 751.615 504.838C751.129 505.078 750.496 505.198 749.716 505.198ZM759.42 505.198C758.352 505.198 757.473 504.994 756.783 504.586C756.093 504.178 755.58 503.62 755.244 502.912C754.908 502.204 754.74 501.394 754.74 500.482C754.74 499.582 754.905 498.784 755.235 498.088C755.565 497.392 756.039 496.849 756.657 496.459C757.275 496.063 758.013 495.865 758.871 495.865C759.627 495.865 760.275 496.012 760.815 496.306C761.361 496.6 761.781 497.032 762.075 497.602C762.369 498.166 762.516 498.865 762.516 499.699C762.516 499.921 762.51 500.122 762.498 500.302C762.492 500.476 762.474 500.653 762.444 500.833L761.139 500.176C761.151 500.08 761.157 499.99 761.157 499.906C761.163 499.816 761.166 499.729 761.166 499.645C761.166 498.799 760.956 498.157 760.536 497.719C760.116 497.275 759.567 497.053 758.889 497.053C758.343 497.053 757.872 497.194 757.476 497.476C757.086 497.752 756.783 498.136 756.567 498.628C756.351 499.12 756.243 499.681 756.243 500.311V500.518C756.243 501.214 756.363 501.814 756.603 502.318C756.843 502.822 757.206 503.212 757.692 503.488C758.184 503.758 758.808 503.893 759.564 503.893C759.846 503.893 760.143 503.872 760.455 503.83C760.773 503.782 761.085 503.71 761.391 503.614C761.703 503.518 762 503.392 762.282 503.236L762.345 504.577C762.117 504.703 761.853 504.814 761.553 504.91C761.253 505 760.923 505.069 760.563 505.117C760.203 505.171 759.822 505.198 759.42 505.198ZM755.361 500.833V499.771L761.535 499.717L762.444 500.059V500.833H755.361ZM764.88 505C764.88 504.334 764.88 503.695 764.88 503.083C764.88 502.471 764.88 501.796 764.88 501.058V500.158C764.88 499.498 764.88 498.823 764.88 498.133C764.88 497.443 764.88 496.756 764.88 496.072L766.176 495.982L766.221 497.8H766.374C766.62 497.254 766.902 496.843 767.22 496.567C767.544 496.285 767.871 496.096 768.201 496C768.531 495.904 768.834 495.856 769.11 495.856C769.278 495.856 769.446 495.868 769.614 495.892C769.782 495.916 769.941 495.955 770.091 496.009L769.956 497.503C769.758 497.467 769.578 497.437 769.416 497.413C769.26 497.389 769.077 497.377 768.867 497.377C768.693 497.377 768.495 497.404 768.273 497.458C768.057 497.506 767.832 497.611 767.598 497.773C767.37 497.929 767.148 498.166 766.932 498.484C766.716 498.796 766.527 499.213 766.365 499.735V501.121C766.365 501.823 766.365 502.48 766.365 503.092C766.365 503.698 766.365 504.334 766.365 505H764.88ZM772.069 505C772.069 504.334 772.069 503.695 772.069 503.083C772.069 502.471 772.069 501.796 772.069 501.058V500.158C772.069 499.498 772.069 498.823 772.069 498.133C772.069 497.443 772.069 496.756 772.069 496.072L773.365 495.982L773.41 497.638H773.572C773.764 497.368 774.01 497.095 774.31 496.819C774.61 496.543 774.964 496.315 775.372 496.135C775.78 495.949 776.248 495.856 776.776 495.856C777.724 495.856 778.417 496.129 778.855 496.675C779.293 497.221 779.512 498.013 779.512 499.051C779.512 499.441 779.512 499.786 779.512 500.086C779.512 500.386 779.512 500.71 779.512 501.058C779.512 501.766 779.512 502.435 779.512 503.065C779.512 503.689 779.512 504.334 779.512 505H778.027C778.027 504.334 778.027 503.692 778.027 503.074C778.027 502.45 778.027 501.799 778.027 501.121V499.429C778.027 498.715 777.898 498.175 777.64 497.809C777.388 497.443 776.929 497.26 776.263 497.26C775.861 497.26 775.495 497.341 775.165 497.503C774.835 497.665 774.535 497.884 774.265 498.16C774.001 498.43 773.764 498.73 773.554 499.06V501.121C773.554 501.823 773.554 502.48 773.554 503.092C773.554 503.698 773.554 504.334 773.554 505H772.069ZM784.476 505.18C783.942 505.18 783.474 505.078 783.072 504.874C782.67 504.664 782.355 504.367 782.127 503.983C781.905 503.599 781.794 503.137 781.794 502.597C781.794 502.111 781.881 501.703 782.055 501.373C782.229 501.037 782.457 500.764 782.739 500.554C783.021 500.344 783.333 500.182 783.675 500.068C784.017 499.948 784.359 499.858 784.701 499.798L787.5 499.312C787.524 498.706 787.443 498.25 787.257 497.944C787.077 497.632 786.822 497.422 786.492 497.314C786.162 497.206 785.796 497.152 785.394 497.152C785.19 497.152 784.971 497.167 784.737 497.197C784.503 497.227 784.254 497.275 783.99 497.341C783.732 497.401 783.459 497.479 783.171 497.575C782.883 497.671 782.58 497.788 782.262 497.926L782.181 496.567C782.397 496.477 782.64 496.39 782.91 496.306C783.186 496.222 783.477 496.147 783.783 496.081C784.095 496.009 784.413 495.955 784.737 495.919C785.061 495.883 785.388 495.865 785.718 495.865C786.384 495.865 786.957 495.97 787.437 496.18C787.923 496.39 788.295 496.72 788.553 497.17C788.811 497.62 788.94 498.208 788.94 498.934C788.94 499.21 788.94 499.561 788.94 499.987C788.94 500.413 788.94 500.818 788.94 501.202V502.363C788.94 502.771 788.94 503.188 788.94 503.614C788.94 504.034 788.94 504.496 788.94 505H787.59L787.509 503.731H787.365C787.179 503.971 786.945 504.202 786.663 504.424C786.381 504.646 786.054 504.829 785.682 504.973C785.316 505.111 784.914 505.18 784.476 505.18ZM784.908 503.947C785.226 503.947 785.544 503.881 785.862 503.749C786.18 503.617 786.477 503.422 786.753 503.164C787.035 502.9 787.272 502.57 787.464 502.174L787.473 500.248C787.377 500.302 787.248 500.356 787.086 500.41C786.93 500.464 786.693 500.527 786.375 500.599C786.063 500.665 785.628 500.749 785.07 500.851C784.728 500.911 784.425 501.01 784.161 501.148C783.897 501.28 783.687 501.463 783.531 501.697C783.381 501.925 783.306 502.204 783.306 502.534C783.306 503.05 783.459 503.416 783.765 503.632C784.077 503.842 784.458 503.947 784.908 503.947ZM791.81 505C791.81 504.334 791.81 503.695 791.81 503.083C791.81 502.471 791.81 501.796 791.81 501.058V500.158C791.81 499.498 791.81 498.823 791.81 498.133C791.81 497.443 791.81 496.756 791.81 496.072L793.106 495.982L793.151 497.62H793.313C793.499 497.356 793.733 497.089 794.015 496.819C794.303 496.543 794.642 496.315 795.032 496.135C795.422 495.949 795.869 495.856 796.373 495.856C797.105 495.856 797.666 496.039 798.056 496.405C798.452 496.765 798.71 497.284 798.83 497.962L798.92 498.016C798.944 498.178 798.962 498.346 798.974 498.52C798.992 498.688 799.001 498.865 799.001 499.051C799.001 499.441 799.001 499.786 799.001 500.086C799.001 500.386 799.001 500.71 799.001 501.058C799.001 501.766 799.001 502.435 799.001 503.065C799.001 503.689 799.001 504.334 799.001 505H797.516C797.516 504.334 797.516 503.692 797.516 503.074C797.516 502.45 797.516 501.799 797.516 501.121V499.429C797.516 498.715 797.396 498.175 797.156 497.809C796.916 497.443 796.481 497.26 795.851 497.26C795.467 497.26 795.119 497.344 794.807 497.512C794.501 497.674 794.222 497.893 793.97 498.169C793.724 498.439 793.499 498.736 793.295 499.06V501.121C793.295 501.823 793.295 502.48 793.295 503.092C793.295 503.698 793.295 504.334 793.295 505H791.81ZM803.15 505C803.15 504.334 803.15 503.692 803.15 503.074C803.15 502.45 803.15 501.799 803.15 501.121V499.429C803.15 498.715 803.03 498.175 802.79 497.809C802.55 497.443 802.115 497.26 801.485 497.26C801.107 497.26 800.762 497.341 800.45 497.503C800.144 497.665 799.862 497.884 799.604 498.16C799.352 498.43 799.127 498.73 798.929 499.06L798.713 497.656H798.875C799.079 497.38 799.328 497.104 799.622 496.828C799.922 496.546 800.27 496.315 800.666 496.135C801.062 495.949 801.512 495.856 802.016 495.856C802.952 495.856 803.621 496.135 804.023 496.693C804.431 497.251 804.635 498.037 804.635 499.051C804.635 499.441 804.635 499.786 804.635 500.086C804.635 500.386 804.635 500.71 804.635 501.058C804.635 501.766 804.635 502.435 804.635 503.065C804.635 503.689 804.635 504.334 804.635 505H803.15ZM811.539 505.198C810.471 505.198 809.592 504.994 808.902 504.586C808.212 504.178 807.699 503.62 807.363 502.912C807.027 502.204 806.859 501.394 806.859 500.482C806.859 499.582 807.024 498.784 807.354 498.088C807.684 497.392 808.158 496.849 808.776 496.459C809.394 496.063 810.132 495.865 810.99 495.865C811.746 495.865 812.394 496.012 812.934 496.306C813.48 496.6 813.9 497.032 814.194 497.602C814.488 498.166 814.635 498.865 814.635 499.699C814.635 499.921 814.629 500.122 814.617 500.302C814.611 500.476 814.593 500.653 814.563 500.833L813.258 500.176C813.27 500.08 813.276 499.99 813.276 499.906C813.282 499.816 813.285 499.729 813.285 499.645C813.285 498.799 813.075 498.157 812.655 497.719C812.235 497.275 811.686 497.053 811.008 497.053C810.462 497.053 809.991 497.194 809.595 497.476C809.205 497.752 808.902 498.136 808.686 498.628C808.47 499.12 808.362 499.681 808.362 500.311V500.518C808.362 501.214 808.482 501.814 808.722 502.318C808.962 502.822 809.325 503.212 809.811 503.488C810.303 503.758 810.927 503.893 811.683 503.893C811.965 503.893 812.262 503.872 812.574 503.83C812.892 503.782 813.204 503.71 813.51 503.614C813.822 503.518 814.119 503.392 814.401 503.236L814.464 504.577C814.236 504.703 813.972 504.814 813.672 504.91C813.372 505 813.042 505.069 812.682 505.117C812.322 505.171 811.941 505.198 811.539 505.198ZM807.48 500.833V499.771L813.654 499.717L814.563 500.059V500.833H807.48Z" fill="white"/>
<rect x="642" y="555" width="206" height="54" rx="27" fill="#42635E"/>
<path d="M702.083 576.333H700.667V573.656C700.667 572.153 700.07 570.712 699.007 569.649C697.944 568.586 696.503 567.989 695 567.989C693.497 567.989 692.056 568.586 690.993 569.649C689.93 570.712 689.333 572.153 689.333 573.656V576.333H687.917C686.789 576.333 685.708 576.781 684.911 577.578C684.114 578.375 683.667 579.456 683.667 580.583V591.917C683.667 593.044 684.114 594.125 684.911 594.922C685.708 595.719 686.789 596.167 687.917 596.167H702.083C703.21 596.167 704.291 595.719 705.089 594.922C705.886 594.125 706.333 593.044 706.333 591.917V580.583C706.333 579.456 705.886 578.375 705.089 577.578C704.291 576.781 703.21 576.333 702.083 576.333ZM692.167 573.656C692.148 572.884 692.435 572.136 692.966 571.576C693.497 571.016 694.228 570.689 695 570.667C695.772 570.689 696.503 571.016 697.034 571.576C697.565 572.136 697.852 572.884 697.833 573.656V576.333H692.167V573.656ZM703.5 591.917C703.5 592.292 703.351 592.653 703.085 592.918C702.819 593.184 702.459 593.333 702.083 593.333H687.917C687.541 593.333 687.181 593.184 686.915 592.918C686.649 592.653 686.5 592.292 686.5 591.917V580.583C686.5 580.208 686.649 579.847 686.915 579.582C687.181 579.316 687.541 579.167 687.917 579.167H702.083C702.459 579.167 702.819 579.316 703.085 579.582C703.351 579.847 703.5 580.208 703.5 580.583V591.917Z" fill="#A3B0A0"/>
<path d="M695 582C694.159 582 693.338 582.249 692.639 582.716C691.94 583.183 691.395 583.847 691.074 584.624C690.752 585.4 690.668 586.255 690.832 587.079C690.996 587.904 691.4 588.661 691.995 589.255C692.589 589.85 693.346 590.254 694.171 590.418C694.995 590.582 695.85 590.498 696.626 590.177C697.403 589.855 698.067 589.31 698.534 588.611C699.001 587.912 699.25 587.091 699.25 586.25C699.25 585.123 698.802 584.042 698.005 583.245C697.208 582.448 696.127 582 695 582ZM695 587.667C694.72 587.667 694.446 587.584 694.213 587.428C693.98 587.272 693.798 587.051 693.691 586.792C693.584 586.533 693.556 586.248 693.611 585.974C693.665 585.699 693.8 585.446 693.998 585.248C694.196 585.05 694.449 584.915 694.724 584.861C694.998 584.806 695.283 584.834 695.542 584.941C695.801 585.048 696.022 585.23 696.178 585.463C696.334 585.696 696.417 585.97 696.417 586.25C696.417 586.626 696.267 586.986 696.002 587.252C695.736 587.517 695.376 587.667 695 587.667Z" fill="#A3B0A0"/>
<path d="M733.665 589C733.665 588.286 733.665 587.599 733.665 586.939C733.665 586.279 733.665 585.553 733.665 584.761V580.45C733.665 579.652 733.665 578.917 733.665 578.245C733.665 577.573 733.665 576.88 733.665 576.166C734.151 576.166 734.778 576.166 735.546 576.166C736.32 576.166 737.205 576.166 738.201 576.166C739.179 576.166 739.986 576.295 740.622 576.553C741.264 576.811 741.744 577.213 742.062 577.759C742.38 578.299 742.539 578.992 742.539 579.838C742.539 580.624 742.392 581.323 742.098 581.935C741.81 582.541 741.324 583.018 740.64 583.366C739.962 583.714 739.035 583.888 737.859 583.888C737.559 583.888 737.238 583.888 736.896 583.888C736.554 583.888 736.221 583.888 735.897 583.888C735.573 583.888 735.291 583.888 735.051 583.888V582.538H737.553C738.321 582.538 738.948 582.448 739.434 582.268C739.926 582.088 740.289 581.8 740.523 581.404C740.757 581.008 740.874 580.489 740.874 579.847C740.874 579.319 740.787 578.899 740.613 578.587C740.445 578.275 740.22 578.044 739.938 577.894C739.662 577.738 739.362 577.636 739.038 577.588C738.714 577.54 738.399 577.516 738.093 577.516H734.475L735.267 576.4C735.267 577.12 735.267 577.816 735.267 578.488C735.267 579.154 735.267 579.886 735.267 580.684V584.761C735.267 585.553 735.267 586.279 735.267 586.939C735.267 587.599 735.267 588.286 735.267 589H733.665ZM746.939 589.18C746.405 589.18 745.937 589.078 745.535 588.874C745.133 588.664 744.818 588.367 744.59 587.983C744.368 587.599 744.257 587.137 744.257 586.597C744.257 586.111 744.344 585.703 744.518 585.373C744.692 585.037 744.92 584.764 745.202 584.554C745.484 584.344 745.796 584.182 746.138 584.068C746.48 583.948 746.822 583.858 747.164 583.798L749.963 583.312C749.987 582.706 749.906 582.25 749.72 581.944C749.54 581.632 749.285 581.422 748.955 581.314C748.625 581.206 748.259 581.152 747.857 581.152C747.653 581.152 747.434 581.167 747.2 581.197C746.966 581.227 746.717 581.275 746.453 581.341C746.195 581.401 745.922 581.479 745.634 581.575C745.346 581.671 745.043 581.788 744.725 581.926L744.644 580.567C744.86 580.477 745.103 580.39 745.373 580.306C745.649 580.222 745.94 580.147 746.246 580.081C746.558 580.009 746.876 579.955 747.2 579.919C747.524 579.883 747.851 579.865 748.181 579.865C748.847 579.865 749.42 579.97 749.9 580.18C750.386 580.39 750.758 580.72 751.016 581.17C751.274 581.62 751.403 582.208 751.403 582.934C751.403 583.21 751.403 583.561 751.403 583.987C751.403 584.413 751.403 584.818 751.403 585.202V586.363C751.403 586.771 751.403 587.188 751.403 587.614C751.403 588.034 751.403 588.496 751.403 589H750.053L749.972 587.731H749.828C749.642 587.971 749.408 588.202 749.126 588.424C748.844 588.646 748.517 588.829 748.145 588.973C747.779 589.111 747.377 589.18 746.939 589.18ZM747.371 587.947C747.689 587.947 748.007 587.881 748.325 587.749C748.643 587.617 748.94 587.422 749.216 587.164C749.498 586.9 749.735 586.57 749.927 586.174L749.936 584.248C749.84 584.302 749.711 584.356 749.549 584.41C749.393 584.464 749.156 584.527 748.838 584.599C748.526 584.665 748.091 584.749 747.533 584.851C747.191 584.911 746.888 585.01 746.624 585.148C746.36 585.28 746.15 585.463 745.994 585.697C745.844 585.925 745.769 586.204 745.769 586.534C745.769 587.05 745.922 587.416 746.228 587.632C746.54 587.842 746.921 587.947 747.371 587.947ZM756.793 589.198C756.421 589.198 756.046 589.168 755.668 589.108C755.296 589.048 754.945 588.97 754.615 588.874C754.285 588.772 753.997 588.658 753.751 588.532L753.868 587.137C754.144 587.293 754.438 587.431 754.75 587.551C755.068 587.665 755.395 587.755 755.731 587.821C756.073 587.881 756.415 587.911 756.757 587.911C757.087 587.911 757.39 587.875 757.666 587.803C757.948 587.725 758.17 587.587 758.332 587.389C758.5 587.185 758.584 586.891 758.584 586.507C758.584 586.255 758.512 586.048 758.368 585.886C758.224 585.724 757.981 585.577 757.639 585.445C757.303 585.313 756.847 585.166 756.271 585.004C755.797 584.872 755.374 584.71 755.002 584.518C754.63 584.326 754.336 584.068 754.12 583.744C753.91 583.42 753.805 582.997 753.805 582.475C753.805 581.665 754.069 581.029 754.597 580.567C755.131 580.099 755.848 579.865 756.748 579.865C757.12 579.865 757.48 579.898 757.828 579.964C758.176 580.024 758.497 580.105 758.791 580.207C759.085 580.309 759.34 580.417 759.556 580.531L759.43 581.926C759.142 581.746 758.845 581.599 758.539 581.485C758.233 581.365 757.939 581.281 757.657 581.233C757.375 581.179 757.126 581.152 756.91 581.152C756.664 581.152 756.418 581.188 756.172 581.26C755.932 581.326 755.731 581.452 755.569 581.638C755.407 581.818 755.326 582.079 755.326 582.421C755.326 582.667 755.383 582.874 755.497 583.042C755.611 583.21 755.809 583.36 756.091 583.492C756.373 583.624 756.763 583.762 757.261 583.906C757.855 584.08 758.362 584.263 758.782 584.455C759.208 584.641 759.535 584.887 759.763 585.193C759.991 585.499 760.105 585.922 760.105 586.462C760.105 586.984 759.991 587.452 759.763 587.866C759.535 588.274 759.178 588.598 758.692 588.838C758.206 589.078 757.573 589.198 756.793 589.198ZM764.966 589.198C764.594 589.198 764.219 589.168 763.841 589.108C763.469 589.048 763.118 588.97 762.788 588.874C762.458 588.772 762.17 588.658 761.924 588.532L762.041 587.137C762.317 587.293 762.611 587.431 762.923 587.551C763.241 587.665 763.568 587.755 763.904 587.821C764.246 587.881 764.588 587.911 764.93 587.911C765.26 587.911 765.563 587.875 765.839 587.803C766.121 587.725 766.343 587.587 766.505 587.389C766.673 587.185 766.757 586.891 766.757 586.507C766.757 586.255 766.685 586.048 766.541 585.886C766.397 585.724 766.154 585.577 765.812 585.445C765.476 585.313 765.02 585.166 764.444 585.004C763.97 584.872 763.547 584.71 763.175 584.518C762.803 584.326 762.509 584.068 762.293 583.744C762.083 583.42 761.978 582.997 761.978 582.475C761.978 581.665 762.242 581.029 762.77 580.567C763.304 580.099 764.021 579.865 764.921 579.865C765.293 579.865 765.653 579.898 766.001 579.964C766.349 580.024 766.67 580.105 766.964 580.207C767.258 580.309 767.513 580.417 767.729 580.531L767.603 581.926C767.315 581.746 767.018 581.599 766.712 581.485C766.406 581.365 766.112 581.281 765.83 581.233C765.548 581.179 765.299 581.152 765.083 581.152C764.837 581.152 764.591 581.188 764.345 581.26C764.105 581.326 763.904 581.452 763.742 581.638C763.58 581.818 763.499 582.079 763.499 582.421C763.499 582.667 763.556 582.874 763.67 583.042C763.784 583.21 763.982 583.36 764.264 583.492C764.546 583.624 764.936 583.762 765.434 583.906C766.028 584.08 766.535 584.263 766.955 584.455C767.381 584.641 767.708 584.887 767.936 585.193C768.164 585.499 768.278 585.922 768.278 586.462C768.278 586.984 768.164 587.452 767.936 587.866C767.708 588.274 767.351 588.598 766.865 588.838C766.379 589.078 765.746 589.198 764.966 589.198ZM772.28 589C772.1 588.436 771.917 587.875 771.731 587.317C771.545 586.753 771.356 586.18 771.164 585.598L770.651 584.014C770.435 583.354 770.219 582.7 770.003 582.052C769.793 581.398 769.58 580.738 769.364 580.072L770.93 580.009C771.152 580.741 771.383 581.512 771.623 582.322C771.869 583.126 772.103 583.9 772.325 584.644L773.153 587.407H773.297L774.107 584.581C774.323 583.831 774.539 583.084 774.755 582.34C774.971 581.59 775.19 580.834 775.412 580.072H776.852C777.068 580.798 777.287 581.542 777.509 582.304C777.731 583.06 777.95 583.807 778.166 584.545L779.003 587.407H779.147L779.993 584.509C780.203 583.783 780.422 583.027 780.65 582.241C780.884 581.449 781.097 580.726 781.289 580.072H782.873C782.663 580.726 782.45 581.383 782.234 582.043C782.024 582.703 781.814 583.36 781.604 584.014L781.1 585.58C780.908 586.162 780.719 586.741 780.533 587.317C780.347 587.887 780.164 588.448 779.984 589H778.229C778.019 588.31 777.803 587.596 777.581 586.858C777.359 586.114 777.143 585.409 776.933 584.743L776.15 582.142H775.997L775.223 584.77C775.025 585.436 774.818 586.135 774.602 586.867C774.386 587.599 774.173 588.31 773.963 589H772.28ZM788.421 589.198C787.683 589.198 787.032 589.072 786.468 588.82C785.91 588.562 785.442 588.214 785.064 587.776C784.686 587.338 784.398 586.837 784.2 586.273C784.008 585.703 783.912 585.106 783.912 584.482C783.912 583.588 784.092 582.796 784.452 582.106C784.818 581.41 785.334 580.861 786 580.459C786.672 580.057 787.47 579.856 788.394 579.856C789.108 579.856 789.741 579.973 790.293 580.207C790.845 580.441 791.313 580.768 791.697 581.188C792.081 581.608 792.372 582.1 792.57 582.664C792.768 583.222 792.867 583.828 792.867 584.482C792.867 585.364 792.687 586.162 792.327 586.876C791.967 587.59 791.454 588.157 790.788 588.577C790.128 588.991 789.339 589.198 788.421 589.198ZM788.421 587.902C789.075 587.902 789.618 587.74 790.05 587.416C790.482 587.092 790.806 586.669 791.022 586.147C791.238 585.625 791.346 585.07 791.346 584.482C791.346 583.81 791.226 583.225 790.986 582.727C790.746 582.229 790.407 581.842 789.969 581.566C789.531 581.29 789.012 581.152 788.412 581.152C787.764 581.152 787.218 581.299 786.774 581.593C786.33 581.887 785.994 582.286 785.766 582.79C785.544 583.294 785.433 583.858 785.433 584.482C785.433 585.07 785.541 585.625 785.757 586.147C785.979 586.669 786.312 587.092 786.756 587.416C787.2 587.74 787.755 587.902 788.421 587.902ZM795.318 589C795.318 588.334 795.318 587.695 795.318 587.083C795.318 586.471 795.318 585.796 795.318 585.058V584.158C795.318 583.498 795.318 582.823 795.318 582.133C795.318 581.443 795.318 580.756 795.318 580.072L796.614 579.982L796.659 581.8H796.812C797.058 581.254 797.34 580.843 797.658 580.567C797.982 580.285 798.309 580.096 798.639 580C798.969 579.904 799.272 579.856 799.548 579.856C799.716 579.856 799.884 579.868 800.052 579.892C800.22 579.916 800.379 579.955 800.529 580.009L800.394 581.503C800.196 581.467 800.016 581.437 799.854 581.413C799.698 581.389 799.515 581.377 799.305 581.377C799.131 581.377 798.933 581.404 798.711 581.458C798.495 581.506 798.27 581.611 798.036 581.773C797.808 581.929 797.586 582.166 797.37 582.484C797.154 582.796 796.965 583.213 796.803 583.735V585.121C796.803 585.823 796.803 586.48 796.803 587.092C796.803 587.698 796.803 588.334 796.803 589H795.318ZM805.385 589.198C804.533 589.198 803.825 588.982 803.261 588.55C802.697 588.112 802.274 587.539 801.992 586.831C801.71 586.117 801.569 585.343 801.569 584.509C801.569 583.621 801.719 582.826 802.019 582.124C802.319 581.422 802.754 580.87 803.324 580.468C803.9 580.06 804.596 579.856 805.412 579.856C805.826 579.856 806.204 579.913 806.546 580.027C806.894 580.135 807.2 580.282 807.464 580.468C807.728 580.648 807.947 580.849 808.121 581.071H808.274V580.117C808.274 579.361 808.274 578.629 808.274 577.921C808.274 577.207 808.274 576.508 808.274 575.824L809.759 575.644C809.759 576.37 809.759 577.099 809.759 577.831C809.759 578.557 809.759 579.319 809.759 580.117V585.058C809.759 585.796 809.759 586.471 809.759 587.083C809.759 587.695 809.759 588.334 809.759 589H808.463L808.391 587.776H808.247C808.013 588.082 807.752 588.34 807.464 588.55C807.176 588.76 806.858 588.919 806.51 589.027C806.168 589.141 805.793 589.198 805.385 589.198ZM805.835 587.866C806.207 587.866 806.543 587.809 806.843 587.695C807.143 587.575 807.41 587.407 807.644 587.191C807.884 586.975 808.094 586.714 808.274 586.408V582.439C808.088 582.169 807.866 581.944 807.608 581.764C807.356 581.578 807.08 581.44 806.78 581.35C806.48 581.254 806.174 581.206 805.862 581.206C805.232 581.206 804.713 581.356 804.305 581.656C803.897 581.956 803.591 582.358 803.387 582.862C803.189 583.36 803.09 583.912 803.09 584.518C803.09 585.1 803.186 585.646 803.378 586.156C803.57 586.66 803.867 587.071 804.269 587.389C804.671 587.707 805.193 587.866 805.835 587.866Z" fill="white"/>
<g clip-path="url(#clip1_25_882)">
<path d="M781.07 301C769.58 305.32 758.72 310.75 756.54 323.72C755.91 327.91 755.94 332.03 754.39 335.83C751.47 339.37 748.82 343.03 746.67 346.88C749.11 330.1 749.35 312.69 746.98 295.79C747.06 295.7 747.12 295.59 747.12 295.45C747.44 286.33 750.95 279.08 755.54 271.79C757.03 270.86 758.66 270.14 760.33 269.3C769.09 264.7 779 260.18 781.66 249.68C784.5 238.53 778.09 225.29 774.68 214.75C769.98 225.86 758.91 232.87 754.43 244.03C750.56 253.53 753.71 263.5 752.1 273.12C749.12 278 746.54 283.28 745.86 288.87C744.41 280.99 742.36 273.26 739.69 265.79C738.97 261.66 737.78 257.64 737.29 253.57C735.82 241.93 736.75 230.95 728.39 221.39C718.75 210.53 702.7 204.23 690.69 196C692.49 203.05 695.56 209.75 698.34 216.6C704.56 233.06 709.54 248.95 725.52 258.04C728.81 259.85 734.62 262.09 737.56 265.29C743.09 280.94 745.59 297.43 745.94 314.13C744.06 310.54 741.34 307.25 738.16 304.24C737.94 303.5 737.73 302.76 737.47 302.07C732.07 280.92 712.47 279.02 693.55 273.8C702.39 281.62 703.44 294.79 714.78 301.19C721.45 304.75 729.42 304.15 736.35 306.51C740.42 310.37 743.85 314.71 745.99 319.85C745.89 334.34 744.26 348.93 741.7 363.22C740.49 360.49 738.97 357.97 737.22 355.63C737.27 354.3 737.33 352.93 737.36 351.66C738.46 322.24 709.38 320.76 688 310.88C690.95 315.44 693.41 320.1 695.59 324.91C701.65 336.88 706.75 349.76 720.83 353.88C724.91 355.01 730.14 354.42 734.2 355.81C736.83 358.74 739.24 361.93 741.16 365.65C741.18 365.69 741.21 365.71 741.24 365.75C740.82 368 740.38 370.26 739.92 372.5C739.77 373.22 740.81 373.52 741.02 372.8C743.02 366.01 744.65 358.98 745.88 351.82C749.35 346.59 753.01 341.65 757.04 336.9C758.82 336.66 760.66 336.87 762.68 337.13C772.35 337.69 783.8 342.02 792.19 334.51C800.92 326.62 801.19 304.46 801.96 293.2C795.1 295.98 788.08 298.49 781.07 301Z" fill="#A3B0A0"/>
</g>
<path d="M652.9 425.5C650.447 425.5 648.267 425.14 646.36 424.42C644.453 423.687 642.84 422.66 641.52 421.34C640.213 420.02 639.213 418.46 638.52 416.66C637.84 414.86 637.5 412.887 637.5 410.74C637.5 407.833 638.093 405.267 639.28 403.04C640.48 400.8 642.193 399.053 644.42 397.8C646.647 396.533 649.32 395.9 652.44 395.9C653.44 395.9 654.413 395.967 655.36 396.1C656.32 396.22 657.227 396.387 658.08 396.6C658.933 396.8 659.727 397.033 660.46 397.3C661.193 397.553 661.84 397.82 662.4 398.1L661.9 404.2C660.78 403.56 659.693 403.04 658.64 402.64C657.6 402.24 656.6 401.953 655.64 401.78C654.693 401.593 653.8 401.5 652.96 401.5C651.733 401.5 650.593 401.7 649.54 402.1C648.5 402.487 647.587 403.073 646.8 403.86C646.013 404.647 645.4 405.62 644.96 406.78C644.533 407.927 644.32 409.253 644.32 410.76C644.32 412.053 644.5 413.273 644.86 414.42C645.233 415.567 645.793 416.58 646.54 417.46C647.287 418.327 648.233 419.007 649.38 419.5C650.54 419.993 651.9 420.24 653.46 420.24C654.287 420.24 655.073 420.2 655.82 420.12C656.567 420.04 657.287 419.913 657.98 419.74C658.673 419.567 659.353 419.353 660.02 419.1C660.7 418.833 661.38 418.513 662.06 418.14L662.84 424C662.387 424.187 661.8 424.373 661.08 424.56C660.373 424.733 659.573 424.893 658.68 425.04C657.8 425.187 656.867 425.3 655.88 425.38C654.893 425.46 653.9 425.5 652.9 425.5ZM656.66 424.12C656.66 422.627 656.66 421.32 656.66 420.2C656.66 419.08 656.66 417.953 656.66 416.82C656.66 415.513 656.66 414.353 656.66 413.34C656.66 412.327 656.66 411.293 656.66 410.24H662.84C662.84 411.293 662.84 412.327 662.84 413.34C662.84 414.353 662.84 415.513 662.84 416.82C662.84 417.953 662.84 419.08 662.84 420.2C662.84 421.307 662.84 422.573 662.84 424L656.66 424.12ZM672.301 425.48C671.154 425.48 670.154 425.24 669.301 424.76C668.447 424.28 667.781 423.607 667.301 422.74C666.821 421.86 666.581 420.82 666.581 419.62C666.581 418.487 666.781 417.54 667.181 416.78C667.581 416.007 668.094 415.38 668.721 414.9C669.361 414.42 670.054 414.053 670.801 413.8C671.561 413.547 672.301 413.36 673.021 413.24L678.581 412.38C678.607 411.607 678.461 411.007 678.141 410.58C677.821 410.14 677.354 409.833 676.741 409.66C676.141 409.487 675.421 409.4 674.581 409.4C674.127 409.4 673.634 409.44 673.101 409.52C672.567 409.587 672.007 409.693 671.421 409.84C670.847 409.987 670.247 410.167 669.621 410.38C669.007 410.593 668.387 410.853 667.761 411.16L667.481 406.06C667.974 405.887 668.541 405.707 669.181 405.52C669.821 405.333 670.514 405.167 671.261 405.02C672.007 404.86 672.794 404.733 673.621 404.64C674.461 404.547 675.321 404.5 676.201 404.5C677.867 404.5 679.287 404.747 680.461 405.24C681.647 405.72 682.554 406.48 683.181 407.52C683.807 408.56 684.121 409.92 684.121 411.6C684.121 412.253 684.121 413.053 684.121 414C684.121 414.947 684.121 415.793 684.121 416.54V418.44C684.121 419.453 684.121 420.5 684.121 421.58C684.121 422.647 684.121 423.787 684.121 425H679.021L678.641 422.34H678.181C677.821 422.847 677.367 423.347 676.821 423.84C676.274 424.32 675.621 424.713 674.861 425.02C674.114 425.327 673.261 425.48 672.301 425.48ZM674.681 420.86C675.147 420.86 675.614 420.753 676.081 420.54C676.547 420.313 676.981 420 677.381 419.6C677.781 419.187 678.127 418.7 678.421 418.14V415.08C678.261 415.2 678.054 415.313 677.801 415.42C677.561 415.513 677.201 415.62 676.721 415.74C676.254 415.847 675.601 415.987 674.761 416.16C674.281 416.253 673.867 416.413 673.521 416.64C673.174 416.867 672.901 417.16 672.701 417.52C672.514 417.867 672.421 418.28 672.421 418.76C672.421 419.52 672.647 420.06 673.101 420.38C673.567 420.7 674.094 420.86 674.681 420.86ZM688.694 425C688.694 423.573 688.694 422.193 688.694 420.86C688.694 419.513 688.694 418.013 688.694 416.36V414.36C688.694 412.827 688.694 411.287 688.694 409.74C688.694 408.193 688.694 406.627 688.694 405.04L693.714 404.74L693.974 408.42H694.474C694.994 407.34 695.568 406.52 696.194 405.96C696.821 405.387 697.461 405 698.114 404.8C698.768 404.6 699.394 404.5 699.994 404.5C700.301 404.5 700.641 404.527 701.014 404.58C701.401 404.633 701.761 404.727 702.094 404.86L701.574 410.66C701.054 410.62 700.588 410.587 700.174 410.56C699.761 410.533 699.321 410.52 698.854 410.52C698.481 410.52 698.094 410.56 697.694 410.64C697.308 410.72 696.928 410.88 696.554 411.12C696.181 411.36 695.834 411.693 695.514 412.12C695.194 412.547 694.914 413.1 694.674 413.78V416.68C694.674 418.173 694.674 419.58 694.674 420.9C694.674 422.207 694.674 423.573 694.674 425H688.694ZM711.632 425.54C709.805 425.54 708.299 425.047 707.112 424.06C705.925 423.073 705.045 421.78 704.472 420.18C703.899 418.58 703.612 416.853 703.612 415C703.612 413.013 703.912 411.227 704.512 409.64C705.125 408.053 706.032 406.8 707.232 405.88C708.432 404.96 709.919 404.5 711.692 404.5C712.479 404.5 713.205 404.607 713.872 404.82C714.539 405.02 715.125 405.313 715.632 405.7C716.152 406.087 716.592 406.547 716.952 407.08H717.432V405.26C717.432 403.633 717.432 402.033 717.432 400.46C717.432 398.873 717.432 397.28 717.432 395.68L723.392 395.16C723.392 396.733 723.392 398.353 723.392 400.02C723.392 401.673 723.392 403.42 723.392 405.26V416.36C723.392 418.013 723.392 419.513 723.392 420.86C723.392 422.193 723.392 423.573 723.392 425H718.332L717.972 422.38H717.552C717.072 423.06 716.532 423.633 715.932 424.1C715.345 424.567 714.692 424.92 713.972 425.16C713.265 425.413 712.485 425.54 711.632 425.54ZM713.892 420.46C714.439 420.46 714.932 420.367 715.372 420.18C715.825 419.993 716.219 419.733 716.552 419.4C716.899 419.067 717.192 418.673 717.432 418.22V411.42C717.165 411.047 716.845 410.727 716.472 410.46C716.112 410.193 715.712 409.993 715.272 409.86C714.832 409.713 714.379 409.64 713.912 409.64C712.979 409.64 712.199 409.887 711.572 410.38C710.959 410.873 710.492 411.533 710.172 412.36C709.865 413.173 709.712 414.067 709.712 415.04C709.712 415.973 709.859 416.853 710.152 417.68C710.459 418.493 710.919 419.16 711.532 419.68C712.159 420.2 712.945 420.46 713.892 420.46ZM738.03 425.52C735.457 425.52 733.35 425.067 731.71 424.16C730.084 423.253 728.884 422.007 728.11 420.42C727.35 418.833 726.97 417.013 726.97 414.96C726.97 412.907 727.33 411.093 728.05 409.52C728.77 407.947 729.844 406.72 731.27 405.84C732.71 404.947 734.497 404.5 736.63 404.5C738.444 404.5 739.997 404.827 741.29 405.48C742.584 406.12 743.577 407.093 744.27 408.4C744.964 409.707 745.31 411.353 745.31 413.34C745.31 413.873 745.297 414.347 745.27 414.76C745.244 415.173 745.197 415.587 745.13 416L740.01 414.06C740.037 413.887 740.057 413.707 740.07 413.52C740.084 413.333 740.09 413.16 740.09 413C740.09 411.653 739.77 410.6 739.13 409.84C738.504 409.067 737.69 408.68 736.69 408.68C735.93 408.68 735.257 408.907 734.67 409.36C734.084 409.8 733.624 410.42 733.29 411.22C732.957 412.02 732.79 412.973 732.79 414.08V415.06C732.79 416.22 732.997 417.213 733.41 418.04C733.837 418.867 734.49 419.5 735.37 419.94C736.25 420.38 737.377 420.6 738.75 420.6C739.284 420.6 739.897 420.553 740.59 420.46C741.297 420.353 742.01 420.2 742.73 420C743.464 419.787 744.144 419.52 744.77 419.2L744.97 424.24C744.45 424.48 743.844 424.7 743.15 424.9C742.47 425.087 741.697 425.233 740.83 425.34C739.964 425.46 739.03 425.52 738.03 425.52ZM729.27 416V412.8L741.65 412.54L745.13 413.52V416H729.27ZM749.085 425C749.085 423.573 749.085 422.193 749.085 420.86C749.085 419.513 749.085 418.013 749.085 416.36V414.36C749.085 412.827 749.085 411.287 749.085 409.74C749.085 408.193 749.085 406.627 749.085 405.04L754.105 404.74L754.365 408.22H754.865C755.318 407.567 755.865 406.96 756.505 406.4C757.145 405.827 757.878 405.367 758.705 405.02C759.545 404.673 760.498 404.5 761.565 404.5C763.565 404.5 765.078 405.093 766.105 406.28C767.132 407.453 767.645 409.213 767.645 411.56C767.645 412.44 767.645 413.26 767.645 414.02C767.645 414.767 767.645 415.547 767.645 416.36C767.645 417.987 767.645 419.48 767.645 420.84C767.645 422.187 767.645 423.573 767.645 425H761.685C761.685 423.573 761.685 422.193 761.685 420.86C761.685 419.527 761.685 418.133 761.685 416.68V413.48C761.685 412.307 761.492 411.427 761.105 410.84C760.718 410.24 760.025 409.94 759.025 409.94C758.452 409.94 757.925 410.06 757.445 410.3C756.965 410.527 756.525 410.84 756.125 411.24C755.725 411.627 755.372 412.06 755.065 412.54V416.68C755.065 418.173 755.065 419.58 755.065 420.9C755.065 422.207 755.065 423.573 755.065 425H749.085ZM778.246 425C778.753 423.467 779.28 421.853 779.826 420.16C780.386 418.467 780.913 416.86 781.406 415.34L784.626 405.56C785.2 403.787 785.72 402.193 786.186 400.78C786.653 399.353 787.12 397.92 787.586 396.48H796.066C796.546 397.973 797.013 399.427 797.466 400.84C797.933 402.253 798.453 403.827 799.026 405.56L802.206 415.36C802.726 416.933 803.253 418.553 803.786 420.22C804.333 421.887 804.853 423.48 805.346 425H798.546C798.12 423.48 797.68 421.927 797.226 420.34C796.773 418.74 796.34 417.227 795.926 415.8L792.006 402.06H791.526L787.566 415.66C787.14 417.14 786.686 418.693 786.206 420.32C785.74 421.933 785.286 423.493 784.846 425H778.246ZM785.126 419.04L785.826 414.12H798.566L799.126 419.04H785.126ZM808.616 432.86C808.616 431.433 808.616 430.02 808.616 428.62C808.616 427.22 808.616 425.693 808.616 424.04V414.36C808.616 412.827 808.616 411.287 808.616 409.74C808.616 408.193 808.616 406.627 808.616 405.04L813.916 404.74L814.096 407.48H814.576C814.976 406.853 815.456 406.32 816.016 405.88C816.59 405.427 817.236 405.087 817.956 404.86C818.676 404.62 819.47 404.5 820.336 404.5C822.096 404.5 823.576 404.96 824.776 405.88C825.976 406.8 826.883 408.053 827.496 409.64C828.11 411.227 828.416 413.013 828.416 415C828.416 416.853 828.123 418.58 827.536 420.18C826.963 421.78 826.083 423.073 824.896 424.06C823.71 425.047 822.21 425.54 820.396 425.54C819.583 425.54 818.843 425.427 818.176 425.2C817.523 424.987 816.93 424.68 816.396 424.28C815.863 423.88 815.383 423.4 814.956 422.84H814.596V424.36C814.596 425.853 814.596 427.253 814.596 428.56C814.596 429.88 814.596 431.253 814.596 432.68L808.616 432.86ZM818.136 420.46C819.083 420.46 819.863 420.2 820.476 419.68C821.103 419.16 821.563 418.493 821.856 417.68C822.15 416.853 822.296 415.973 822.296 415.04C822.296 414.067 822.143 413.173 821.836 412.36C821.53 411.533 821.063 410.873 820.436 410.38C819.823 409.887 819.043 409.64 818.096 409.64C817.63 409.64 817.176 409.713 816.736 409.86C816.31 409.993 815.91 410.193 815.536 410.46C815.176 410.727 814.863 411.047 814.596 411.42V418.22C814.836 418.673 815.123 419.067 815.456 419.4C815.79 419.733 816.176 419.993 816.616 420.18C817.07 420.367 817.576 420.46 818.136 420.46ZM832.288 432.86C832.288 431.433 832.288 430.02 832.288 428.62C832.288 427.22 832.288 425.693 832.288 424.04V414.36C832.288 412.827 832.288 411.287 832.288 409.74C832.288 408.193 832.288 406.627 832.288 405.04L837.588 404.74L837.768 407.48H838.248C838.648 406.853 839.128 406.32 839.688 405.88C840.261 405.427 840.908 405.087 841.628 404.86C842.348 404.62 843.141 404.5 844.008 404.5C845.768 404.5 847.248 404.96 848.448 405.88C849.648 406.8 850.555 408.053 851.168 409.64C851.781 411.227 852.088 413.013 852.088 415C852.088 416.853 851.795 418.58 851.208 420.18C850.635 421.78 849.755 423.073 848.568 424.06C847.381 425.047 845.881 425.54 844.068 425.54C843.255 425.54 842.515 425.427 841.848 425.2C841.195 424.987 840.601 424.68 840.068 424.28C839.535 423.88 839.055 423.4 838.628 422.84H838.268V424.36C838.268 425.853 838.268 427.253 838.268 428.56C838.268 429.88 838.268 431.253 838.268 432.68L832.288 432.86ZM841.808 420.46C842.755 420.46 843.535 420.2 844.148 419.68C844.775 419.16 845.235 418.493 845.528 417.68C845.821 416.853 845.968 415.973 845.968 415.04C845.968 414.067 845.815 413.173 845.508 412.36C845.201 411.533 844.735 410.873 844.108 410.38C843.495 409.887 842.715 409.64 841.768 409.64C841.301 409.64 840.848 409.713 840.408 409.86C839.981 409.993 839.581 410.193 839.208 410.46C838.848 410.727 838.535 411.047 838.268 411.42V418.22C838.508 418.673 838.795 419.067 839.128 419.4C839.461 419.733 839.848 419.993 840.288 420.18C840.741 420.367 841.248 420.46 841.808 420.46Z" fill="#E1764B"/>
<defs>
<linearGradient id="paint0_linear_25_882" x1="1440" y1="-6.03497e-05" x2="-9.48376e-05" y2="1024" gradientUnits="userSpaceOnUse">
<stop offset="0.000348475" stop-color="#1E4F47"/>
<stop offset="1" stop-color="#0D2D29"/>
</linearGradient>
<clipPath id="clip0_25_882">
<rect width="88" height="96.5355" fill="white" transform="translate(1306 904)"/>
</clipPath>
<clipPath id="clip1_25_882">
<rect width="113.95" height="177.2" fill="white" transform="translate(688 196)"/>
</clipPath>
</defs>
</svg>
